<?xml version="1.0" encoding="utf-8"?>
<!-- Generator: Adobe Illustrator 16.0.4, SVG Export Plug-In . SVG Version: 6.00 Build 0)  -->
<!DOCTYPE svg PUBLIC "-//W3C//DTD SVG 1.1//EN" "http://www.w3.org/Graphics/SVG/1.1/DTD/svg11.dtd">
<svg version="1.1" id="Layer_1" xmlns="http://www.w3.org/2000/svg" xmlns:xlink="http://www.w3.org/1999/xlink" x="0px" y="0px"
	 width="80px" height="80px" viewBox="0 0 80 80" enable-background="new 0 0 80 80" xml:space="preserve">
<polygon fill="#FFFFFF" points="24,30.168 24,49.696 40.996,60.717 58,49.696 58,30.168 40.996,20.161 "/>
<path d="M40.485,62.442c-0.138,0-0.274-0.033-0.399-0.101c-0.265-0.146-0.43-0.426-0.43-0.729V40.645
	c0-0.283,0.145-0.548,0.383-0.699l18.59-11.837c0.255-0.164,0.577-0.173,0.845-0.028c0.265,0.146,0.431,0.425,0.431,0.728v20.969
	c0,0.282-0.146,0.547-0.384,0.698l-18.59,11.838C40.795,62.4,40.641,62.442,40.485,62.442z M41.313,41.1v19.004l16.932-10.782
	V30.317L41.313,41.1z"/>
<path fill="none" d="M40.651,5.679c-18.429,0-33.37,14.941-33.37,33.374c0,18.435,14.941,33.379,33.37,33.379
	c18.431,0,33.374-14.944,33.374-33.379C74.025,20.62,59.082,5.679,40.651,5.679z"/>
<rect x="60" y="40" width="2" height="2"/>
<polygon fill="none" points="24,30.574 24,37 34.071,37 "/>
<polygon fill="none" points="41,43 41,59.76 58,49.485 58,31.217 46,38.076 46,43 "/>
<polygon fill="none" points="24,49.485 40,60.115 40,43 24,43 "/>
<g>
	<rect x="67" y="40" fill="#231F20" width="2" height="2"/>
	<rect x="71" y="40" fill="#231F20" width="2" height="2"/>
	<rect x="63" y="40" fill="#231F20" width="2" height="2"/>
	<path fill="#231F20" d="M50.815,43.16c-0.028,0.024-0.043,0.061-0.043,0.099c0,0.036,0.021,0.074,0.043,0.097
		c0.028,0.028,0.061,0.042,0.097,0.042c0.038,0,0.076-0.014,0.103-0.042c0.024-0.027,0.038-0.061,0.038-0.097
		c0-0.038-0.014-0.07-0.043-0.104C50.96,43.105,50.867,43.105,50.815,43.16z"/>
	<path fill="#231F20" d="M51.374,43.719c-0.023,0.023-0.042,0.06-0.042,0.098c0,0.037,0.013,0.068,0.046,0.103
		c0.023,0.022,0.062,0.037,0.098,0.037c0.033,0,0.07-0.015,0.098-0.042c0.023-0.029,0.041-0.061,0.041-0.098
		c0-0.038-0.018-0.074-0.041-0.098C51.522,43.663,51.425,43.666,51.374,43.719z"/>
	<path fill="#231F20" d="M51.936,44.277c-0.027,0.022-0.041,0.061-0.041,0.098s0.014,0.073,0.037,0.098
		c0.027,0.028,0.061,0.041,0.102,0.041c0.038,0,0.076-0.013,0.099-0.041c0.028-0.028,0.041-0.061,0.041-0.098
		s-0.013-0.07-0.041-0.098C52.08,44.226,51.983,44.231,51.936,44.277z"/>
	<path fill="#231F20" d="M52.49,44.84c-0.023,0.023-0.037,0.06-0.037,0.092c0,0.039,0.014,0.075,0.042,0.104
		c0.027,0.022,0.06,0.042,0.098,0.042c0.036,0,0.074-0.02,0.098-0.042c0.027-0.023,0.042-0.061,0.042-0.104
		c0-0.036-0.015-0.068-0.042-0.098C52.639,44.783,52.555,44.779,52.49,44.84z"/>
	<path fill="#231F20" d="M50.812,40.365c-0.024,0.023-0.043,0.061-0.043,0.098c0,0.038,0.014,0.07,0.043,0.098
		c0.027,0.027,0.06,0.042,0.098,0.042c0.041,0,0.079-0.015,0.097-0.042c0.027-0.027,0.043-0.06,0.043-0.098
		c0-0.037-0.016-0.074-0.039-0.098C50.96,40.31,50.861,40.31,50.812,40.365z"/>
	<path fill="#231F20" d="M51.368,40.923c-0.023,0.023-0.041,0.062-0.041,0.098c0,0.038,0.014,0.07,0.047,0.103
		c0.027,0.022,0.06,0.039,0.098,0.039c0.033,0,0.069-0.017,0.098-0.044c0.022-0.022,0.042-0.06,0.042-0.098
		c0-0.036-0.02-0.074-0.042-0.098C51.518,40.867,51.42,40.872,51.368,40.923z"/>
	<path fill="#231F20" d="M51.928,41.482c-0.024,0.026-0.037,0.065-0.037,0.098c0,0.036,0.013,0.068,0.037,0.097
		c0.027,0.028,0.064,0.041,0.102,0.041s0.075-0.013,0.093-0.036c0.032-0.027,0.047-0.065,0.047-0.102
		c0-0.037-0.015-0.071-0.041-0.098C52.075,41.432,51.988,41.427,51.928,41.482z"/>
	<path fill="#231F20" d="M52.484,42.04c-0.021,0.027-0.036,0.064-0.036,0.098c0,0.036,0.015,0.069,0.042,0.103
		c0.022,0.023,0.062,0.037,0.098,0.037c0.037,0,0.073-0.014,0.098-0.037c0.027-0.028,0.042-0.066,0.042-0.103
		c0-0.038-0.015-0.074-0.037-0.094C52.639,41.987,52.54,41.987,52.484,42.04z"/>
	<path fill="#231F20" d="M53.048,42.599c-0.028,0.027-0.042,0.064-0.042,0.103c0,0.036,0.014,0.068,0.042,0.096
		c0.028,0.028,0.061,0.044,0.097,0.044c0.039,0,0.075-0.016,0.104-0.044c0.024-0.027,0.037-0.064,0.037-0.096
		c0-0.038-0.013-0.075-0.037-0.098C53.192,42.547,53.095,42.551,53.048,42.599z"/>
	<path fill="#231F20" d="M53.61,43.155c-0.027,0.029-0.047,0.065-0.047,0.104c0,0.036,0.015,0.069,0.042,0.097
		c0.023,0.028,0.062,0.042,0.098,0.042c0.041,0,0.08-0.018,0.098-0.042c0.028-0.027,0.042-0.061,0.042-0.097
		c0-0.038-0.014-0.074-0.036-0.099C53.756,43.105,53.652,43.11,53.61,43.155z"/>
	<path fill="#231F20" d="M54.164,43.719c-0.022,0.023-0.041,0.06-0.041,0.098c0,0.037,0.014,0.068,0.046,0.103
		c0.028,0.022,0.062,0.037,0.098,0.037c0.032,0,0.07-0.015,0.098-0.042c0.023-0.022,0.037-0.061,0.037-0.098
		c0-0.038-0.014-0.074-0.037-0.098C54.312,43.663,54.21,43.666,54.164,43.719z"/>
	<path fill="#231F20" d="M54.727,44.277c-0.027,0.022-0.042,0.061-0.042,0.098c0,0.041,0.015,0.073,0.038,0.098
		c0.027,0.028,0.064,0.041,0.102,0.041c0.038,0,0.075-0.013,0.098-0.041c0.029-0.024,0.042-0.061,0.042-0.098
		s-0.013-0.07-0.042-0.098C54.871,44.226,54.773,44.231,54.727,44.277z"/>
	<path fill="#231F20" d="M55.286,44.834c-0.029,0.029-0.043,0.065-0.043,0.098c0,0.043,0.014,0.075,0.043,0.099
		c0.023,0.027,0.06,0.047,0.098,0.047c0.036,0,0.068-0.02,0.101-0.047c0.024-0.023,0.039-0.06,0.039-0.099
		c0-0.032-0.015-0.064-0.043-0.098C55.425,44.783,55.337,44.783,55.286,44.834z"/>
	<path fill="#231F20" d="M50.903,37.807c0.038,0,0.075-0.014,0.098-0.043c0.029-0.026,0.042-0.059,0.042-0.097
		c0-0.036-0.013-0.073-0.037-0.097c-0.056-0.057-0.153-0.051-0.199,0c-0.028,0.023-0.043,0.061-0.043,0.097
		c0,0.038,0.015,0.07,0.043,0.097C50.834,37.793,50.871,37.807,50.903,37.807z"/>
	<path fill="#231F20" d="M51.363,38.129c-0.022,0.027-0.041,0.06-0.041,0.098c0,0.036,0.019,0.073,0.041,0.097
		c0.029,0.028,0.062,0.043,0.104,0.043c0.038,0,0.069-0.015,0.094-0.043c0.027-0.023,0.045-0.061,0.045-0.097
		c0-0.038-0.014-0.07-0.041-0.098C51.509,38.076,51.425,38.072,51.363,38.129z"/>
	<path fill="#231F20" d="M51.923,38.686c-0.023,0.027-0.038,0.061-0.038,0.098s0.015,0.075,0.038,0.099
		c0.027,0.027,0.065,0.041,0.102,0.041c0.037,0,0.074-0.014,0.098-0.041c0.028-0.023,0.042-0.062,0.042-0.099
		s-0.014-0.07-0.042-0.098C52.066,38.636,51.979,38.636,51.923,38.686z"/>
	<path fill="#231F20" d="M52.484,39.248c-0.026,0.024-0.042,0.062-0.042,0.094c0,0.037,0.016,0.07,0.042,0.104
		c0.024,0.021,0.061,0.036,0.099,0.036c0.037,0,0.074-0.015,0.097-0.036c0.029-0.029,0.043-0.066,0.043-0.104
		c0-0.036-0.014-0.069-0.043-0.098C52.629,39.193,52.545,39.188,52.484,39.248z"/>
	<path fill="#231F20" d="M53.044,39.808c-0.029,0.022-0.042,0.06-0.042,0.098c0,0.032,0.013,0.068,0.042,0.098
		c0.027,0.027,0.064,0.042,0.098,0.042c0.037,0,0.069-0.015,0.098-0.042c0.027-0.029,0.042-0.062,0.042-0.098
		c0-0.038-0.015-0.075-0.038-0.098C53.192,39.751,53.1,39.751,53.044,39.808z"/>
	<path fill="#231F20" d="M53.602,40.365c-0.028,0.028-0.042,0.061-0.042,0.098c0,0.038,0.014,0.07,0.042,0.098
		c0.027,0.027,0.061,0.042,0.098,0.042c0.042,0,0.074-0.015,0.098-0.042c0.027-0.027,0.046-0.06,0.046-0.098
		c0-0.037-0.019-0.069-0.046-0.102C53.744,40.31,53.658,40.31,53.602,40.365z"/>
	<path fill="#231F20" d="M54.159,40.923c-0.022,0.023-0.041,0.062-0.041,0.098c0,0.038,0.014,0.07,0.041,0.098
		c0.028,0.027,0.062,0.044,0.104,0.044c0.036,0,0.074-0.017,0.098-0.044c0.027-0.027,0.041-0.06,0.041-0.098
		c0-0.036-0.019-0.074-0.041-0.098C54.308,40.867,54.21,40.872,54.159,40.923z"/>
	<path fill="#231F20" d="M54.723,41.482c-0.029,0.021-0.041,0.061-0.041,0.098c0,0.036,0.012,0.068,0.037,0.097
		c0.027,0.028,0.06,0.041,0.102,0.041c0.037,0,0.074-0.013,0.099-0.041c0.026-0.022,0.041-0.061,0.041-0.097
		c0-0.037-0.019-0.076-0.041-0.094C54.866,41.432,54.77,41.432,54.723,41.482z"/>
	<path fill="#231F20" d="M55.274,42.04c-0.021,0.027-0.036,0.064-0.036,0.098c0,0.036,0.015,0.069,0.043,0.103
		c0.028,0.023,0.061,0.037,0.097,0.037c0.038,0,0.07-0.014,0.098-0.037c0.027-0.028,0.043-0.066,0.043-0.103
		c0-0.038-0.016-0.07-0.043-0.094C55.425,41.987,55.337,41.983,55.274,42.04z"/>
	<path fill="#231F20" d="M55.838,42.599c-0.023,0.022-0.041,0.06-0.041,0.103c0,0.036,0.014,0.068,0.041,0.096
		c0.029,0.028,0.062,0.044,0.098,0.044c0.039,0,0.071-0.016,0.104-0.044c0.023-0.027,0.036-0.064,0.036-0.096
		c0-0.038-0.013-0.075-0.036-0.098C55.986,42.547,55.886,42.551,55.838,42.599z"/>
	<path fill="#231F20" d="M56.401,43.155c-0.027,0.029-0.047,0.065-0.047,0.104c0,0.036,0.015,0.069,0.042,0.097
		c0.028,0.028,0.062,0.042,0.098,0.042c0.037,0,0.076-0.014,0.104-0.042c0.026-0.027,0.036-0.063,0.036-0.097
		c0-0.038-0.014-0.074-0.036-0.099C56.541,43.105,56.442,43.11,56.401,43.155z"/>
	<path fill="#231F20" d="M56.96,43.719c-0.027,0.023-0.046,0.06-0.046,0.098c0,0.037,0.012,0.068,0.041,0.098
		c0.027,0.027,0.065,0.042,0.103,0.042c0.032,0,0.069-0.015,0.097-0.042c0.024-0.029,0.043-0.061,0.043-0.098
		c0-0.038-0.019-0.074-0.043-0.098C57.104,43.666,57.001,43.666,56.96,43.719z"/>
	<path fill="#231F20" d="M57.517,44.277c-0.027,0.022-0.041,0.061-0.041,0.098s0.014,0.073,0.041,0.101
		c0.024,0.025,0.062,0.038,0.098,0.038c0.039,0,0.071-0.013,0.099-0.041c0.028-0.024,0.041-0.061,0.041-0.098
		s-0.019-0.075-0.041-0.093C57.662,44.226,57.564,44.231,57.517,44.277z"/>
	<path fill="#231F20" d="M51.462,35.569c0.037,0,0.07-0.014,0.099-0.041c0.027-0.027,0.042-0.061,0.042-0.098
		c0-0.036-0.021-0.075-0.042-0.099c-0.056-0.056-0.159-0.047-0.197-0.005c-0.027,0.028-0.045,0.067-0.045,0.104
		c0,0.037,0.018,0.07,0.041,0.098C51.384,35.556,51.42,35.569,51.462,35.569z"/>
	<path fill="#231F20" d="M52.021,36.128c0.036,0,0.074-0.013,0.098-0.037c0.023-0.028,0.042-0.064,0.042-0.104
		c0-0.036-0.015-0.068-0.042-0.096c-0.052-0.053-0.145-0.058-0.2,0c-0.023,0.027-0.037,0.06-0.037,0.096
		c0,0.039,0.014,0.075,0.037,0.099C51.944,36.115,51.983,36.128,52.021,36.128z"/>
	<path fill="#231F20" d="M52.579,36.69c0.036,0,0.069-0.015,0.101-0.047c0.024-0.027,0.038-0.061,0.038-0.093
		c0-0.036-0.014-0.073-0.041-0.101c-0.057-0.057-0.154-0.048-0.196,0c-0.027,0.027-0.041,0.06-0.041,0.101
		c0,0.038,0.014,0.07,0.041,0.098C52.504,36.672,52.54,36.69,52.579,36.69z"/>
	<path fill="#231F20" d="M53.039,37.007c-0.028,0.027-0.042,0.065-0.042,0.103s0.014,0.07,0.042,0.094
		c0.023,0.027,0.061,0.046,0.097,0.046c0.038,0,0.075-0.019,0.098-0.042c0.027-0.027,0.043-0.061,0.043-0.098
		s-0.016-0.075-0.043-0.098C53.184,36.955,53.085,36.961,53.039,37.007z"/>
	<path fill="#231F20" d="M53.597,37.565c-0.027,0.028-0.042,0.065-0.042,0.102c0,0.038,0.015,0.07,0.042,0.097
		c0.028,0.029,0.062,0.043,0.098,0.043c0.037,0,0.07-0.014,0.103-0.043c0.023-0.026,0.036-0.063,0.036-0.097
		c0-0.036-0.013-0.073-0.036-0.097C53.741,37.514,53.644,37.52,53.597,37.565z"/>
	<path fill="#231F20" d="M54.159,38.129c-0.027,0.023-0.046,0.06-0.046,0.098c0,0.036,0.019,0.068,0.041,0.097
		c0.028,0.028,0.066,0.043,0.104,0.043s0.068-0.015,0.098-0.043c0.023-0.023,0.041-0.061,0.041-0.097
		c0-0.038-0.018-0.074-0.041-0.098C54.304,38.072,54.207,38.076,54.159,38.129z"/>
	<path fill="#231F20" d="M54.719,38.686c-0.028,0.024-0.044,0.061-0.044,0.098s0.016,0.075,0.039,0.099
		c0.027,0.027,0.06,0.041,0.102,0.041c0.037,0,0.074-0.014,0.097-0.041c0.029-0.028,0.043-0.062,0.043-0.099
		s-0.014-0.07-0.043-0.098C54.862,38.636,54.76,38.641,54.719,38.686z"/>
	<path fill="#231F20" d="M55.274,39.244c-0.026,0.028-0.041,0.065-0.041,0.098c0,0.041,0.015,0.074,0.041,0.098
		c0.025,0.027,0.062,0.042,0.099,0.042c0.038,0,0.075-0.015,0.098-0.042c0.028-0.023,0.043-0.061,0.043-0.098
		c0-0.032-0.015-0.065-0.043-0.098C55.416,39.193,55.327,39.193,55.274,39.244z"/>
	<path fill="#231F20" d="M55.834,39.803c-0.028,0.027-0.041,0.064-0.041,0.103c0,0.032,0.013,0.068,0.041,0.098
		c0.027,0.027,0.061,0.042,0.098,0.042s0.075-0.015,0.099-0.042c0.027-0.029,0.041-0.062,0.041-0.098
		c0-0.042-0.014-0.08-0.037-0.098C55.983,39.751,55.886,39.751,55.834,39.803z"/>
	<path fill="#231F20" d="M56.396,40.361c-0.027,0.027-0.046,0.064-0.046,0.102c0,0.038,0.019,0.074,0.042,0.098
		c0.027,0.027,0.06,0.042,0.098,0.042c0.036,0,0.073-0.015,0.102-0.042c0.023-0.027,0.038-0.06,0.038-0.098
		c0-0.037-0.015-0.074-0.038-0.098C56.541,40.31,56.438,40.314,56.396,40.361z"/>
	<path fill="#231F20" d="M56.95,40.923c-0.024,0.023-0.036,0.062-0.036,0.098c0,0.038,0.012,0.075,0.036,0.098
		c0.027,0.027,0.061,0.044,0.104,0.044c0.036,0,0.068-0.017,0.098-0.044c0.021-0.027,0.041-0.06,0.041-0.098
		c0-0.036-0.014-0.068-0.041-0.102C57.095,40.872,57.006,40.872,56.95,40.923z"/>
	<path fill="#231F20" d="M57.51,41.482c-0.025,0.026-0.038,0.065-0.038,0.098c0,0.036,0.013,0.074,0.038,0.097
		c0.027,0.028,0.063,0.041,0.101,0.041c0.039,0,0.075-0.013,0.093-0.036c0.028-0.027,0.048-0.061,0.048-0.102
		c0-0.037-0.016-0.076-0.042-0.098C57.657,41.432,57.569,41.427,57.51,41.482z"/>
	<path fill="#231F20" d="M53.132,34.454c0.037,0,0.069-0.02,0.098-0.042c0.027-0.028,0.043-0.064,0.043-0.098
		c0-0.042-0.016-0.074-0.039-0.098c-0.05-0.057-0.148-0.057-0.198-0.006c-0.029,0.029-0.044,0.065-0.044,0.104
		c0,0.033,0.015,0.069,0.044,0.098C53.062,34.439,53.1,34.454,53.132,34.454z"/>
	<path fill="#231F20" d="M53.69,35.012c0.041,0,0.074-0.019,0.098-0.042c0.027-0.022,0.041-0.061,0.041-0.098
		s-0.014-0.073-0.041-0.102c-0.053-0.052-0.14-0.052-0.196,0.004c-0.028,0.029-0.041,0.061-0.041,0.098s0.013,0.069,0.041,0.098
		C53.616,34.993,53.652,35.012,53.69,35.012z"/>
	<path fill="#231F20" d="M54.253,35.569c0.037,0,0.073-0.014,0.099-0.041c0.021-0.027,0.041-0.061,0.041-0.098
		c0-0.036-0.02-0.075-0.041-0.099c-0.053-0.056-0.15-0.051-0.201,0c-0.023,0.023-0.041,0.062-0.041,0.099
		c0,0.037,0.014,0.07,0.041,0.098C54.179,35.556,54.21,35.569,54.253,35.569z"/>
	<path fill="#231F20" d="M54.714,35.892c-0.029,0.022-0.042,0.06-0.042,0.096c0,0.039,0.013,0.071,0.042,0.099
		c0.021,0.029,0.06,0.042,0.098,0.042c0.036,0,0.068-0.013,0.098-0.042c0.027-0.023,0.042-0.06,0.042-0.099
		c0-0.036-0.019-0.073-0.042-0.092C54.857,35.839,54.755,35.839,54.714,35.892z"/>
	<path fill="#231F20" d="M55.271,36.45c-0.027,0.027-0.041,0.06-0.041,0.101c0,0.038,0.014,0.075,0.036,0.093
		c0.029,0.028,0.065,0.047,0.104,0.047c0.037,0,0.074-0.019,0.098-0.042c0.023-0.027,0.042-0.06,0.042-0.098
		c0-0.036-0.015-0.073-0.042-0.098C55.416,36.397,55.313,36.402,55.271,36.45z"/>
	<path fill="#231F20" d="M55.829,37.007c-0.027,0.027-0.041,0.065-0.041,0.103c0,0.032,0.014,0.07,0.041,0.098
		c0.027,0.023,0.062,0.042,0.098,0.042c0.037,0,0.075-0.019,0.098-0.042c0.027-0.027,0.042-0.065,0.042-0.098
		c0-0.037-0.015-0.075-0.036-0.098C55.975,36.955,55.877,36.961,55.829,37.007z"/>
	<path fill="#231F20" d="M56.393,37.565c-0.028,0.028-0.047,0.065-0.047,0.102c0,0.038,0.015,0.075,0.042,0.097
		c0.027,0.029,0.062,0.043,0.098,0.043c0.037,0,0.075-0.014,0.103-0.043c0.023-0.026,0.036-0.059,0.036-0.097
		c0-0.036-0.013-0.073-0.036-0.097C56.531,37.514,56.434,37.52,56.393,37.565z"/>
	<path fill="#231F20" d="M56.95,38.129c-0.027,0.023-0.047,0.06-0.047,0.098c0,0.036,0.02,0.068,0.042,0.097
		c0.028,0.028,0.065,0.043,0.104,0.043c0.032,0,0.068-0.015,0.097-0.043c0.027-0.028,0.042-0.061,0.042-0.097
		c0-0.038-0.018-0.074-0.042-0.098C57.095,38.072,56.992,38.076,56.95,38.129z"/>
	<path fill="#231F20" d="M57.51,38.686c-0.029,0.027-0.044,0.061-0.044,0.098s0.015,0.075,0.038,0.099
		c0.028,0.027,0.065,0.041,0.102,0.041c0.038,0,0.075-0.014,0.098-0.037c0.023-0.027,0.042-0.065,0.042-0.103
		s-0.014-0.073-0.042-0.098C57.653,38.636,57.555,38.636,57.51,38.686z"/>
	<path fill="#231F20" d="M54.807,33.333c0.037,0,0.069-0.015,0.097-0.042c0.029-0.022,0.042-0.062,0.042-0.098
		c0-0.038-0.013-0.07-0.042-0.098c-0.051-0.056-0.148-0.053-0.194,0c-0.027,0.022-0.043,0.06-0.043,0.098
		c0,0.042,0.016,0.075,0.038,0.098C54.731,33.318,54.77,33.333,54.807,33.333z"/>
	<path fill="#231F20" d="M55.363,33.891c0.039,0,0.076-0.015,0.099-0.042c0.028-0.028,0.041-0.06,0.041-0.098
		c0-0.032-0.013-0.069-0.041-0.097c-0.056-0.052-0.145-0.052-0.196,0c-0.027,0.027-0.041,0.059-0.041,0.097s0.014,0.074,0.037,0.098
		C55.29,33.876,55.327,33.891,55.363,33.891z"/>
	<path fill="#231F20" d="M55.923,34.448c0.036,0,0.075-0.014,0.098-0.036c0.027-0.028,0.042-0.062,0.042-0.104
		c0-0.036-0.015-0.073-0.038-0.092c-0.05-0.057-0.147-0.057-0.199-0.006c-0.028,0.029-0.043,0.062-0.043,0.098
		c0,0.039,0.015,0.075,0.043,0.104C55.848,34.435,55.886,34.448,55.923,34.448z"/>
	<path fill="#231F20" d="M56.383,34.771c-0.022,0.028-0.041,0.064-0.041,0.102s0.019,0.075,0.041,0.093
		c0.023,0.028,0.06,0.047,0.099,0.047c0.036,0,0.073-0.014,0.098-0.042c0.027-0.028,0.041-0.061,0.041-0.098
		s-0.014-0.073-0.037-0.098C56.531,34.719,56.43,34.724,56.383,34.771z"/>
	<path fill="#231F20" d="M56.945,35.327c-0.028,0.028-0.042,0.067-0.042,0.104c0,0.037,0.014,0.073,0.038,0.098
		c0.028,0.027,0.064,0.041,0.103,0.041c0.031,0,0.069-0.014,0.099-0.041c0.027-0.027,0.041-0.061,0.041-0.098
		c0-0.036-0.021-0.075-0.041-0.099C57.09,35.276,56.988,35.281,56.945,35.327z"/>
	<path fill="#231F20" d="M57.499,35.892c-0.023,0.027-0.037,0.063-0.037,0.096c0,0.039,0.014,0.071,0.037,0.099
		c0.026,0.029,0.065,0.042,0.103,0.042c0.036,0,0.074-0.013,0.098-0.037c0.023-0.028,0.042-0.061,0.042-0.104
		c0-0.036-0.019-0.073-0.042-0.096C57.649,35.839,57.561,35.834,57.499,35.892z"/>
	<path fill="#231F20" d="M57.038,32.773c0.033,0,0.071-0.013,0.093-0.041c0.029-0.022,0.042-0.061,0.042-0.097
		c0-0.038-0.013-0.074-0.037-0.1c-0.05-0.054-0.153-0.05-0.194-0.004c-0.027,0.029-0.048,0.065-0.048,0.104
		c0,0.036,0.015,0.074,0.042,0.097C56.965,32.761,57.001,32.773,57.038,32.773z"/>
	<path fill="#231F20" d="M57.597,33.333c0.038,0,0.074-0.015,0.094-0.037c0.027-0.027,0.045-0.066,0.045-0.103
		c0-0.038-0.018-0.07-0.041-0.098c-0.051-0.053-0.144-0.053-0.2,0c-0.022,0.027-0.037,0.06-0.037,0.098
		c0,0.042,0.015,0.075,0.037,0.098C57.522,33.318,57.555,33.333,57.597,33.333z"/>
	<path fill="#231F20" d="M53.029,45.397c-0.023,0.024-0.042,0.061-0.042,0.098c0,0.038,0.019,0.069,0.042,0.099
		c0.029,0.027,0.062,0.041,0.103,0.041c0.037,0,0.069-0.019,0.093-0.041c0.027-0.023,0.048-0.061,0.048-0.099
		c0-0.041-0.021-0.073-0.043-0.098C53.179,45.342,53.08,45.342,53.029,45.397z"/>
	<path fill="#231F20" d="M55.825,45.394c-0.028,0.028-0.047,0.064-0.047,0.102c0,0.038,0.019,0.069,0.042,0.099
		c0.027,0.027,0.065,0.041,0.103,0.041c0.036,0,0.069-0.019,0.098-0.041c0.022-0.029,0.042-0.061,0.042-0.099
		c0-0.037-0.02-0.073-0.042-0.098C55.969,45.342,55.87,45.347,55.825,45.394z"/>
	<path fill="#231F20" d="M50.787,51.545c-0.027,0.027-0.041,0.065-0.041,0.102c0,0.032,0.014,0.07,0.041,0.098
		c0.028,0.027,0.065,0.042,0.098,0.042c0.038,0,0.075-0.019,0.098-0.042c0.027-0.027,0.042-0.061,0.042-0.098
		c0-0.042-0.015-0.074-0.036-0.098C50.933,51.492,50.834,51.498,50.787,51.545z"/>
	<path fill="#231F20" d="M51.345,52.107c-0.026,0.027-0.041,0.061-0.041,0.097c0,0.038,0.015,0.07,0.041,0.098
		c0.029,0.029,0.062,0.042,0.099,0.042c0.041,0,0.074-0.013,0.098-0.042c0.028-0.022,0.041-0.06,0.041-0.098
		c0-0.036-0.013-0.074-0.036-0.097C51.489,52.052,51.401,52.052,51.345,52.107z"/>
	<path fill="#231F20" d="M51.903,52.664c-0.022,0.023-0.036,0.062-0.036,0.099c0,0.038,0.014,0.07,0.041,0.103
		c0.027,0.023,0.062,0.038,0.099,0.038s0.068-0.015,0.098-0.042c0.023-0.023,0.037-0.061,0.037-0.099
		c0-0.037-0.014-0.075-0.037-0.099C52.053,52.609,51.95,52.613,51.903,52.664z"/>
	<path fill="#231F20" d="M50.881,48.991c0.037,0,0.073-0.02,0.098-0.042c0.027-0.022,0.043-0.062,0.043-0.098
		c0-0.037-0.016-0.076-0.039-0.098c-0.05-0.056-0.148-0.056-0.2,0c-0.027,0.021-0.042,0.061-0.042,0.098
		c0,0.036,0.015,0.069,0.042,0.098C50.807,48.972,50.844,48.991,50.881,48.991z"/>
	<path fill="#231F20" d="M51.439,49.549c0.041,0,0.074-0.014,0.097-0.041c0.028-0.029,0.042-0.062,0.042-0.098
		c0-0.039-0.014-0.071-0.042-0.104c-0.052-0.051-0.144-0.045-0.195,0.005c-0.028,0.023-0.041,0.06-0.041,0.099
		c0,0.036,0.019,0.073,0.041,0.092C51.363,49.531,51.401,49.549,51.439,49.549z"/>
	<path fill="#231F20" d="M51.899,49.87c-0.027,0.027-0.041,0.061-0.041,0.098c0,0.038,0.018,0.074,0.041,0.097
		c0.028,0.029,0.06,0.043,0.102,0.043c0.038,0,0.074-0.014,0.094-0.043c0.027-0.022,0.047-0.059,0.047-0.097
		c0-0.037-0.02-0.07-0.043-0.098C52.044,49.818,51.959,49.813,51.899,49.87z"/>
	<path fill="#231F20" d="M52.458,50.433c-0.024,0.022-0.038,0.061-0.038,0.093c0,0.038,0.014,0.074,0.038,0.098
		c0.026,0.029,0.064,0.041,0.103,0.041c0.036,0,0.073-0.012,0.092-0.036C52.68,50.6,52.7,50.567,52.7,50.525
		c0-0.037-0.015-0.07-0.043-0.098C52.606,50.377,52.522,50.372,52.458,50.433z"/>
	<path fill="#231F20" d="M53.015,50.99c-0.023,0.023-0.036,0.062-0.036,0.094c0,0.037,0.013,0.075,0.041,0.103
		c0.024,0.023,0.061,0.036,0.099,0.036c0.036,0,0.074-0.013,0.098-0.036s0.041-0.06,0.041-0.103c0-0.037-0.014-0.07-0.041-0.099
		C53.163,50.936,53.076,50.931,53.015,50.99z"/>
	<path fill="#231F20" d="M53.578,51.545c-0.027,0.027-0.041,0.065-0.041,0.102c0,0.032,0.014,0.07,0.041,0.098
		c0.027,0.023,0.062,0.042,0.098,0.042c0.037,0,0.075-0.019,0.098-0.042c0.027-0.027,0.042-0.061,0.042-0.098
		c0-0.042-0.015-0.079-0.036-0.098C53.727,51.492,53.625,51.498,53.578,51.545z"/>
	<path fill="#231F20" d="M50.876,46.195c0.036,0,0.074-0.019,0.098-0.042c0.027-0.027,0.041-0.06,0.041-0.098
		c0-0.042-0.014-0.074-0.041-0.097c-0.051-0.057-0.148-0.052-0.195-0.006c-0.027,0.028-0.042,0.066-0.042,0.103
		c0,0.033,0.015,0.07,0.042,0.098C50.807,46.181,50.839,46.195,50.876,46.195z"/>
	<path fill="#231F20" d="M51.434,46.753c0.042,0,0.075-0.013,0.103-0.041c0.024-0.027,0.037-0.061,0.037-0.099
		c0-0.037-0.013-0.073-0.037-0.098c-0.052-0.056-0.147-0.051-0.2,0c-0.027,0.024-0.041,0.061-0.041,0.098
		c0,0.038,0.014,0.071,0.041,0.099C51.359,46.74,51.397,46.753,51.434,46.753z"/>
	<path fill="#231F20" d="M51.997,47.312c0.036,0,0.069-0.014,0.092-0.036c0.029-0.029,0.043-0.066,0.043-0.103
		c0-0.037-0.014-0.075-0.037-0.099c-0.056-0.052-0.14-0.055-0.2,0c-0.027,0.028-0.043,0.062-0.043,0.099
		c0,0.036,0.016,0.073,0.043,0.097C51.923,47.298,51.959,47.312,51.997,47.312z"/>
	<path fill="#231F20" d="M52.555,47.87c0.033,0,0.07-0.014,0.098-0.043c0.027-0.027,0.042-0.06,0.042-0.096
		c0-0.038-0.018-0.076-0.042-0.099c-0.051-0.056-0.148-0.052-0.194,0c-0.028,0.022-0.048,0.061-0.048,0.099
		c0,0.036,0.02,0.068,0.048,0.101C52.48,47.856,52.519,47.87,52.555,47.87z"/>
	<path fill="#231F20" d="M53.112,48.428c0.039,0,0.076-0.014,0.099-0.041c0.028-0.023,0.041-0.062,0.041-0.099
		c0-0.037-0.013-0.073-0.041-0.094c-0.048-0.055-0.145-0.055-0.2-0.003c-0.023,0.028-0.037,0.064-0.037,0.097
		c0,0.036,0.014,0.07,0.041,0.103C53.039,48.414,53.076,48.428,53.112,48.428z"/>
	<path fill="#231F20" d="M53.672,48.991c0.036,0,0.072-0.02,0.098-0.042c0.027-0.028,0.042-0.062,0.042-0.098
		c0-0.037-0.015-0.076-0.042-0.103c-0.052-0.051-0.141-0.056-0.2,0.005c-0.023,0.027-0.038,0.061-0.038,0.098
		c0,0.036,0.015,0.069,0.042,0.098C53.597,48.972,53.635,48.991,53.672,48.991z"/>
	<path fill="#231F20" d="M54.132,49.312c-0.029,0.023-0.041,0.06-0.041,0.099c0,0.032,0.012,0.068,0.041,0.098
		c0.027,0.027,0.065,0.041,0.099,0.041c0.036,0,0.073-0.014,0.101-0.041c0.024-0.029,0.038-0.062,0.038-0.098
		c0-0.039-0.014-0.075-0.038-0.099C54.28,49.256,54.183,49.256,54.132,49.312z"/>
	<path fill="#231F20" d="M54.69,49.87c-0.024,0.027-0.042,0.061-0.042,0.098c0,0.038,0.018,0.074,0.042,0.097
		c0.023,0.029,0.06,0.043,0.101,0.043c0.039,0,0.071-0.014,0.099-0.043c0.022-0.027,0.043-0.059,0.043-0.097
		c0-0.033-0.014-0.07-0.048-0.103C54.83,49.813,54.746,49.818,54.69,49.87z"/>
	<path fill="#231F20" d="M55.253,50.428c-0.028,0.023-0.042,0.061-0.042,0.098c0,0.038,0.014,0.074,0.037,0.098
		c0.026,0.029,0.065,0.041,0.103,0.041c0.036,0,0.069-0.012,0.098-0.041c0.027-0.023,0.042-0.06,0.042-0.098
		c0-0.037-0.02-0.074-0.042-0.098C55.396,50.372,55.295,50.382,55.253,50.428z"/>
	<path fill="#231F20" d="M53.667,46.195c0.036,0,0.074-0.019,0.098-0.042c0.027-0.027,0.042-0.06,0.042-0.098
		c0-0.036-0.015-0.074-0.037-0.097c-0.052-0.057-0.153-0.057-0.2-0.006c-0.027,0.028-0.042,0.066-0.042,0.103
		c0,0.038,0.015,0.07,0.042,0.098S53.629,46.195,53.667,46.195z"/>
	<path fill="#231F20" d="M54.225,46.753c0.042,0,0.074-0.013,0.102-0.041c0.025-0.027,0.038-0.061,0.038-0.099
		c0-0.037-0.013-0.073-0.038-0.098c-0.055-0.056-0.152-0.051-0.199-0.004c-0.024,0.028-0.042,0.064-0.042,0.102
		c0,0.038,0.015,0.071,0.042,0.099C54.15,46.74,54.188,46.753,54.225,46.753z"/>
	<path fill="#231F20" d="M54.787,47.312c0.033,0,0.065-0.014,0.098-0.042c0.024-0.027,0.043-0.061,0.043-0.097
		c0-0.037-0.019-0.075-0.043-0.099c-0.055-0.055-0.153-0.046-0.194-0.004c-0.028,0.027-0.048,0.065-0.048,0.103
		c0,0.036,0.02,0.073,0.042,0.097C54.714,47.298,54.75,47.312,54.787,47.312z"/>
	<path fill="#231F20" d="M55.346,47.87c0.038,0,0.07-0.014,0.098-0.043c0.027-0.027,0.041-0.06,0.041-0.096
		c0-0.038-0.014-0.071-0.041-0.099c-0.057-0.052-0.148-0.052-0.195,0c-0.027,0.022-0.042,0.061-0.042,0.099
		c0,0.036,0.015,0.073,0.037,0.096C55.271,47.856,55.304,47.87,55.346,47.87z"/>
	<path fill="#231F20" d="M55.806,48.191c-0.027,0.028-0.041,0.064-0.041,0.097c0,0.036,0.014,0.07,0.041,0.103
		c0.028,0.023,0.062,0.037,0.098,0.037c0.038,0,0.071-0.014,0.099-0.037c0.028-0.027,0.041-0.06,0.041-0.103
		c0-0.037-0.019-0.073-0.041-0.094C55.95,48.14,55.856,48.14,55.806,48.191z"/>
	<path fill="#231F20" d="M56.364,48.749c-0.028,0.026-0.043,0.065-0.043,0.103c0,0.032,0.015,0.069,0.043,0.098
		c0.028,0.027,0.061,0.042,0.099,0.042c0.036,0,0.068-0.015,0.098-0.042c0.027-0.028,0.042-0.065,0.042-0.098
		c0-0.037-0.015-0.076-0.039-0.098C56.509,48.698,56.41,48.698,56.364,48.749z"/>
	<path fill="#231F20" d="M56.926,49.307c-0.026,0.028-0.045,0.064-0.045,0.104c0,0.036,0.013,0.068,0.042,0.098
		c0.027,0.027,0.06,0.041,0.098,0.041c0.037,0,0.069-0.014,0.102-0.041c0.023-0.029,0.038-0.062,0.038-0.098
		c0-0.039-0.015-0.075-0.038-0.099C57.066,49.256,56.97,49.262,56.926,49.307z"/>
	<path fill="#231F20" d="M56.458,46.195c0.036,0,0.073-0.019,0.103-0.042c0.022-0.027,0.037-0.064,0.037-0.098
		c0-0.036-0.015-0.074-0.043-0.097c-0.051-0.057-0.148-0.052-0.194-0.006c-0.024,0.028-0.043,0.061-0.043,0.103
		c0,0.038,0.016,0.07,0.043,0.098C56.383,46.177,56.42,46.195,56.458,46.195z"/>
	<path fill="#231F20" d="M57.015,46.753c0.039,0,0.075-0.013,0.103-0.041c0.025-0.027,0.037-0.061,0.037-0.099
		c0-0.037-0.012-0.073-0.037-0.098c-0.055-0.056-0.152-0.051-0.194-0.004c-0.029,0.028-0.047,0.064-0.047,0.102
		c0,0.038,0.014,0.075,0.041,0.099C56.945,46.74,56.978,46.753,57.015,46.753z"/>
	<path fill="#231F20" d="M57.578,47.312c0.032,0,0.071-0.014,0.098-0.042c0.023-0.027,0.042-0.061,0.042-0.097
		c0-0.037-0.019-0.075-0.042-0.099c-0.056-0.055-0.153-0.052-0.195-0.004c-0.027,0.027-0.047,0.065-0.047,0.103
		c0,0.036,0.02,0.073,0.042,0.097C57.504,47.298,57.541,47.312,57.578,47.312z"/>
	<path fill="#231F20" d="M50.37,51.223L50.37,51.223h0.002c0.036,0,0.068-0.013,0.101-0.041c0.023-0.022,0.039-0.061,0.039-0.093
		c0-0.037-0.016-0.075-0.043-0.104c-0.025-0.025-0.062-0.038-0.099-0.037c-0.036,0.001-0.073,0.015-0.101,0.042
		c-0.024,0.023-0.039,0.062-0.039,0.099c0,0.032,0.015,0.07,0.042,0.098C50.302,51.21,50.334,51.223,50.37,51.223z"/>
	<path fill="#231F20" d="M41.376,44.834c-0.028,0.029-0.041,0.062-0.041,0.098c0,0.043,0.013,0.075,0.041,0.104
		c0.027,0.027,0.061,0.042,0.099,0.042c0.036,0,0.074-0.02,0.098-0.042c0.027-0.028,0.041-0.061,0.041-0.104
		c0-0.036-0.014-0.068-0.041-0.098C41.52,44.783,41.428,44.783,41.376,44.834z"/>
	<path fill="#231F20" d="M41.469,42.277c0.038,0,0.075-0.014,0.104-0.041c0.022-0.029,0.036-0.062,0.036-0.099
		c0-0.033-0.014-0.07-0.036-0.094c-0.057-0.057-0.153-0.057-0.201-0.004c-0.027,0.027-0.041,0.064-0.041,0.098
		c0,0.036,0.014,0.069,0.041,0.103C41.395,42.264,41.433,42.277,41.469,42.277z"/>
	<path fill="#231F20" d="M41.93,42.599c-0.023,0.027-0.043,0.064-0.043,0.103c0,0.036,0.016,0.068,0.043,0.096
		c0.028,0.028,0.06,0.044,0.098,0.044c0.037,0,0.073-0.021,0.098-0.044c0.028-0.023,0.042-0.06,0.042-0.096
		c0-0.043-0.014-0.075-0.037-0.098C42.078,42.547,41.976,42.551,41.93,42.599z"/>
	<path fill="#231F20" d="M42.486,43.16c-0.021,0.024-0.041,0.061-0.041,0.099c0,0.036,0.014,0.069,0.041,0.097
		c0.029,0.028,0.062,0.042,0.099,0.042c0.042,0,0.079-0.018,0.098-0.042c0.029-0.022,0.047-0.061,0.047-0.097
		c0-0.038-0.018-0.074-0.042-0.099C42.637,43.105,42.539,43.11,42.486,43.16z"/>
	<path fill="#231F20" d="M43.046,43.719c-0.023,0.023-0.041,0.06-0.041,0.098c0,0.037,0.018,0.075,0.041,0.098
		c0.028,0.027,0.061,0.042,0.102,0.042c0.039,0,0.075-0.015,0.099-0.042c0.022-0.022,0.037-0.061,0.037-0.098
		c0-0.038-0.015-0.074-0.037-0.098C43.195,43.663,43.092,43.666,43.046,43.719z"/>
	<path fill="#231F20" d="M43.604,44.277c-0.022,0.027-0.037,0.064-0.037,0.098c0,0.037,0.015,0.069,0.042,0.101
		c0.028,0.029,0.062,0.038,0.098,0.038c0.037,0,0.07-0.013,0.098-0.038c0.028-0.027,0.042-0.063,0.042-0.101
		s-0.014-0.07-0.042-0.098C43.752,44.226,43.66,44.226,43.604,44.277z"/>
	<path fill="#231F20" d="M44.167,44.834c-0.028,0.029-0.041,0.065-0.041,0.098c0,0.039,0.013,0.075,0.041,0.104
		c0.022,0.022,0.06,0.042,0.099,0.042c0.036,0,0.073-0.02,0.102-0.047c0.023-0.023,0.037-0.06,0.037-0.099
		c0-0.032-0.014-0.068-0.041-0.098C44.307,44.783,44.213,44.783,44.167,44.834z"/>
	<path fill="#231F20" d="M43.041,40.923c-0.023,0.023-0.036,0.062-0.036,0.098c0,0.038,0.013,0.075,0.041,0.103
		c0.028,0.022,0.061,0.039,0.098,0.039c0.033,0,0.069-0.017,0.098-0.044c0.022-0.022,0.042-0.06,0.042-0.098
		c0-0.036-0.02-0.074-0.042-0.098C43.187,40.867,43.092,40.872,43.041,40.923z"/>
	<path fill="#231F20" d="M43.702,41.718c0.036,0,0.068-0.013,0.098-0.041c0.027-0.022,0.041-0.061,0.041-0.097
		c0-0.037-0.014-0.071-0.041-0.098c-0.057-0.051-0.146-0.056-0.201,0c-0.022,0.026-0.036,0.065-0.036,0.098
		c0,0.036,0.014,0.068,0.041,0.102C43.631,41.705,43.665,41.718,43.702,41.718z"/>
	<path fill="#231F20" d="M44.26,42.277c0.038,0,0.074-0.014,0.098-0.037c0.028-0.028,0.042-0.066,0.042-0.103
		c0-0.038-0.014-0.07-0.036-0.094c-0.053-0.057-0.154-0.057-0.201-0.004c-0.027,0.027-0.042,0.064-0.042,0.098
		c0,0.036,0.015,0.069,0.042,0.103C44.189,42.268,44.223,42.277,44.26,42.277z"/>
	<path fill="#231F20" d="M44.72,42.604c-0.027,0.022-0.042,0.06-0.042,0.098c0,0.031,0.015,0.068,0.042,0.096
		c0.029,0.028,0.061,0.044,0.098,0.044c0.038,0,0.074-0.021,0.098-0.044c0.029-0.027,0.042-0.06,0.042-0.096
		c0-0.043-0.013-0.075-0.037-0.098C44.865,42.547,44.767,42.547,44.72,42.604z"/>
	<path fill="#231F20" d="M45.277,43.16c-0.021,0.024-0.041,0.061-0.041,0.099c0,0.033,0.014,0.069,0.046,0.102
		c0.027,0.023,0.062,0.037,0.094,0.037c0.037,0,0.074-0.014,0.098-0.042c0.028-0.027,0.041-0.061,0.041-0.097
		c0-0.042-0.013-0.074-0.036-0.099C45.428,43.105,45.33,43.11,45.277,43.16z"/>
	<path fill="#231F20" d="M45.837,43.719c-0.028,0.027-0.041,0.06-0.041,0.098c0,0.037,0.013,0.068,0.045,0.103
		c0.023,0.022,0.062,0.037,0.098,0.037c0.032,0,0.071-0.015,0.099-0.042c0.028-0.029,0.041-0.061,0.041-0.098
		c0-0.038-0.013-0.07-0.041-0.098C45.98,43.666,45.894,43.663,45.837,43.719z"/>
	<path fill="#231F20" d="M46.399,44.277c-0.027,0.027-0.043,0.061-0.043,0.098s0.016,0.073,0.043,0.098
		c0.022,0.028,0.061,0.041,0.098,0.041s0.069-0.013,0.097-0.041c0.029-0.024,0.043-0.061,0.043-0.098s-0.014-0.07-0.043-0.098
		C46.538,44.226,46.445,44.226,46.399,44.277z"/>
	<path fill="#231F20" d="M46.958,44.834c-0.029,0.029-0.042,0.065-0.042,0.098c0,0.039,0.013,0.071,0.042,0.104
		c0.022,0.022,0.06,0.037,0.098,0.037c0.037,0,0.074-0.015,0.102-0.042c0.023-0.027,0.038-0.06,0.038-0.099
		c0-0.032-0.015-0.068-0.038-0.092C47.106,44.783,47.004,44.783,46.958,44.834z"/>
	<path fill="#231F20" d="M44.813,40.045c0.037,0,0.074-0.015,0.102-0.042c0.023-0.029,0.038-0.065,0.038-0.098
		c0-0.038-0.015-0.075-0.038-0.098c-0.05-0.057-0.152-0.057-0.198,0c-0.029,0.022-0.043,0.06-0.043,0.098
		c0,0.032,0.014,0.068,0.043,0.098C44.738,40.03,44.776,40.045,44.813,40.045z"/>
	<path fill="#231F20" d="M45.371,40.603c0.037,0,0.075-0.015,0.103-0.042c0.023-0.027,0.037-0.06,0.037-0.098
		c0-0.037-0.014-0.074-0.037-0.098c-0.057-0.056-0.148-0.056-0.2,0c-0.028,0.023-0.041,0.061-0.041,0.098
		c0,0.038,0.013,0.07,0.041,0.098C45.301,40.588,45.334,40.603,45.371,40.603z"/>
	<path fill="#231F20" d="M45.935,41.162c0.036,0,0.068-0.017,0.097-0.044c0.023-0.022,0.043-0.06,0.043-0.098
		c0-0.036-0.02-0.074-0.043-0.098c-0.055-0.056-0.153-0.051-0.199,0c-0.023,0.023-0.042,0.062-0.042,0.098
		c0,0.038,0.019,0.075,0.042,0.098C45.859,41.146,45.897,41.162,45.935,41.162z"/>
	<path fill="#231F20" d="M46.39,41.482c-0.023,0.026-0.037,0.065-0.037,0.098c0,0.036,0.014,0.068,0.043,0.102
		c0.026,0.023,0.059,0.036,0.098,0.036c0.032,0,0.068-0.013,0.097-0.041s0.042-0.061,0.042-0.097c0-0.037-0.014-0.071-0.042-0.098
		C46.538,41.432,46.445,41.427,46.39,41.482z"/>
	<path fill="#231F20" d="M46.952,42.04c-0.027,0.023-0.041,0.06-0.041,0.098c0,0.042,0.014,0.074,0.036,0.099
		c0.029,0.027,0.066,0.041,0.103,0.041c0.039,0,0.07-0.014,0.099-0.037c0.027-0.028,0.041-0.066,0.041-0.103
		c0-0.033-0.014-0.07-0.041-0.098C47.098,41.987,47.004,41.987,46.952,42.04z"/>
	<path fill="#231F20" d="M47.511,42.599c-0.027,0.027-0.042,0.064-0.042,0.103c0,0.036,0.015,0.068,0.042,0.096
		c0.029,0.028,0.061,0.044,0.098,0.044c0.041,0,0.074-0.021,0.098-0.044c0.028-0.023,0.042-0.06,0.042-0.096
		c0-0.043-0.014-0.075-0.042-0.103C47.654,42.547,47.562,42.547,47.511,42.599z"/>
	<path fill="#231F20" d="M48.068,43.16c-0.021,0.024-0.042,0.061-0.042,0.099c0,0.033,0.015,0.069,0.047,0.097
		c0.023,0.028,0.062,0.042,0.094,0.042c0.037,0,0.069-0.014,0.103-0.042c0.023-0.027,0.036-0.063,0.036-0.097
		c0-0.038-0.013-0.074-0.036-0.099C48.218,43.105,48.115,43.11,48.068,43.16z"/>
	<path fill="#231F20" d="M48.632,43.719c-0.027,0.023-0.042,0.06-0.042,0.098c0,0.037,0.015,0.075,0.038,0.098
		c0.027,0.027,0.064,0.042,0.101,0.042c0.033,0,0.065-0.015,0.099-0.042c0.029-0.029,0.042-0.061,0.042-0.098
		c0-0.038-0.019-0.07-0.042-0.098C48.776,43.666,48.679,43.666,48.632,43.719z"/>
	<path fill="#231F20" d="M49.189,44.277c-0.027,0.027-0.042,0.064-0.042,0.103c0,0.032,0.015,0.068,0.042,0.096
		c0.023,0.025,0.062,0.038,0.098,0.038c0.038,0,0.07-0.013,0.098-0.038c0.028-0.027,0.042-0.063,0.042-0.096
		c0-0.038-0.014-0.075-0.042-0.098C49.334,44.226,49.231,44.231,49.189,44.277z"/>
	<path fill="#231F20" d="M49.748,44.834c-0.028,0.029-0.041,0.065-0.041,0.098c0,0.039,0.013,0.071,0.041,0.104
		c0.022,0.022,0.061,0.042,0.099,0.042c0.036,0,0.074-0.02,0.102-0.047c0.023-0.027,0.037-0.06,0.037-0.099
		c0-0.032-0.014-0.068-0.037-0.092C49.896,44.783,49.794,44.783,49.748,44.834z"/>
	<path fill="#231F20" d="M50.381,45.357c-0.036,0-0.072,0.013-0.094,0.036c-0.028,0.022-0.042,0.061-0.042,0.102
		c0,0.038,0.014,0.076,0.036,0.094c0.024,0.027,0.062,0.046,0.103,0.046l0.001-0.001l0.002,0.001c0.036,0,0.068-0.014,0.098-0.041
		c0.022-0.029,0.041-0.061,0.041-0.099c0-0.037-0.019-0.073-0.041-0.098C50.458,45.369,50.42,45.357,50.381,45.357z"/>
	<path fill="#231F20" d="M46.487,38.923c0.038,0,0.07-0.014,0.098-0.041c0.029-0.023,0.042-0.062,0.042-0.099
		s-0.013-0.073-0.042-0.098c-0.051-0.05-0.148-0.05-0.195,0c-0.027,0.024-0.042,0.061-0.042,0.098s0.015,0.075,0.038,0.099
		C46.413,38.909,46.45,38.923,46.487,38.923z"/>
	<path fill="#231F20" d="M47.045,39.481c0.038,0,0.075-0.015,0.098-0.036c0.028-0.029,0.044-0.066,0.044-0.099
		c0-0.037-0.016-0.074-0.044-0.103c-0.05-0.051-0.134-0.057-0.199,0c-0.023,0.028-0.037,0.065-0.037,0.103
		c0,0.032,0.014,0.069,0.041,0.099C46.973,39.467,47.009,39.481,47.045,39.481z"/>
	<path fill="#231F20" d="M47.604,40.045c0.036,0,0.074-0.019,0.097-0.042c0.028-0.029,0.042-0.062,0.042-0.098
		c0-0.038-0.014-0.071-0.042-0.103c-0.052-0.052-0.144-0.052-0.194,0.005c-0.028,0.026-0.042,0.06-0.042,0.098
		c0,0.036,0.014,0.068,0.042,0.098C47.528,40.026,47.567,40.045,47.604,40.045z"/>
	<path fill="#231F20" d="M48.064,40.365c-0.028,0.023-0.041,0.061-0.041,0.098c0,0.038,0.018,0.074,0.041,0.098
		c0.027,0.027,0.06,0.042,0.098,0.042c0.037,0,0.074-0.015,0.102-0.042c0.024-0.023,0.038-0.06,0.038-0.098
		c0-0.037-0.014-0.074-0.038-0.098C48.208,40.314,48.12,40.31,48.064,40.365z"/>
	<path fill="#231F20" d="M48.623,40.923c-0.028,0.029-0.043,0.065-0.043,0.098s0.015,0.07,0.048,0.103
		c0.027,0.022,0.06,0.039,0.098,0.039c0.032,0,0.068-0.017,0.096-0.044c0.029-0.027,0.044-0.06,0.044-0.098
		c0-0.036-0.015-0.068-0.044-0.098C48.771,40.872,48.688,40.863,48.623,40.923z"/>
	<path fill="#231F20" d="M49.18,41.482c-0.022,0.026-0.036,0.061-0.036,0.098c0,0.036,0.014,0.074,0.036,0.097
		c0.029,0.028,0.066,0.041,0.104,0.041c0.036,0,0.069-0.013,0.098-0.041c0.027-0.022,0.041-0.061,0.041-0.097
		c0-0.037-0.014-0.071-0.041-0.098C49.328,41.432,49.236,41.432,49.18,41.482z"/>
	<path fill="#231F20" d="M49.743,42.04c-0.027,0.027-0.041,0.06-0.041,0.098c0,0.036,0.014,0.074,0.041,0.103
		c0.023,0.023,0.062,0.037,0.098,0.037c0.038,0,0.075-0.014,0.099-0.037c0.027-0.028,0.041-0.066,0.041-0.103
		c0-0.038-0.014-0.07-0.041-0.098C49.888,41.987,49.791,41.992,49.743,42.04z"/>
	<path fill="#231F20" d="M50.401,42.561c-0.037-0.001-0.074,0.013-0.1,0.038c-0.029,0.027-0.043,0.064-0.043,0.103
		c0,0.031,0.014,0.068,0.043,0.096c0.027,0.028,0.064,0.044,0.098,0.044c0.037,0,0.069-0.016,0.103-0.044
		c0.023-0.027,0.037-0.064,0.037-0.096c0-0.038-0.014-0.075-0.037-0.098C50.477,42.575,50.438,42.561,50.401,42.561z"/>
	<path fill="#231F20" d="M48.157,37.807c0.037,0,0.074-0.014,0.104-0.043c0.022-0.026,0.036-0.059,0.036-0.097
		c0-0.036-0.014-0.073-0.036-0.097c-0.053-0.051-0.154-0.051-0.201,0c-0.027,0.023-0.042,0.061-0.042,0.097
		c0,0.038,0.015,0.07,0.042,0.097C48.088,37.793,48.12,37.807,48.157,37.807z"/>
	<path fill="#231F20" d="M48.72,38.366c0.033,0,0.069-0.015,0.098-0.043c0.027-0.028,0.043-0.061,0.043-0.097
		c0-0.038-0.019-0.074-0.043-0.098c-0.05-0.057-0.148-0.053-0.2,0c-0.022,0.023-0.042,0.06-0.042,0.098
		c0,0.036,0.02,0.068,0.048,0.101C48.65,38.352,48.684,38.366,48.72,38.366z"/>
	<path fill="#231F20" d="M49.278,38.923c0.038,0,0.07-0.014,0.098-0.041c0.028-0.023,0.041-0.062,0.041-0.099
		s-0.018-0.073-0.041-0.092c-0.048-0.056-0.148-0.056-0.2-0.006c-0.023,0.027-0.037,0.061-0.037,0.098s0.014,0.07,0.041,0.103
		C49.209,38.909,49.241,38.923,49.278,38.923z"/>
	<path fill="#231F20" d="M49.738,39.244c-0.027,0.028-0.041,0.065-0.041,0.103c0,0.032,0.014,0.069,0.041,0.099
		c0.024,0.021,0.062,0.036,0.098,0.036c0.037,0,0.074-0.015,0.098-0.036c0.028-0.023,0.043-0.062,0.043-0.099
		c0-0.041-0.02-0.079-0.037-0.099C49.888,39.193,49.784,39.193,49.738,39.244z"/>
	<path fill="#231F20" d="M50.396,39.767c-0.038,0-0.076,0.014-0.099,0.036c-0.024,0.022-0.043,0.061-0.043,0.103
		c0,0.036,0.016,0.073,0.043,0.092c0.022,0.029,0.061,0.048,0.097,0.048l0.001-0.002l0.001,0.002c0.036,0,0.073-0.015,0.096-0.042
		c0.029-0.029,0.043-0.062,0.043-0.098c0-0.038-0.014-0.075-0.038-0.098C50.471,39.779,50.433,39.767,50.396,39.767z"/>
	<path fill="#231F20" d="M49.832,36.686c0.036,0,0.068-0.014,0.098-0.037c0.027-0.027,0.042-0.065,0.042-0.102
		c0-0.032-0.015-0.069-0.042-0.097c-0.051-0.053-0.146-0.053-0.195,0c-0.027,0.027-0.042,0.06-0.042,0.097
		c0,0.042,0.015,0.074,0.037,0.097C49.758,36.672,49.791,36.686,49.832,36.686z"/>
	<path fill="#231F20" d="M50.391,37.244c0.036,0,0.073-0.014,0.097-0.037c0.028-0.027,0.042-0.065,0.042-0.098
		c0-0.037-0.014-0.07-0.042-0.103c-0.023-0.026-0.059-0.039-0.095-0.038c-0.036,0-0.075,0.014-0.105,0.043
		c-0.024,0.027-0.037,0.061-0.037,0.098c0,0.032,0.013,0.07,0.042,0.098C50.314,37.23,50.352,37.244,50.391,37.244z"/>
	<path fill="#231F20" d="M41.911,45.397c-0.024,0.024-0.042,0.061-0.042,0.098c0,0.032,0.018,0.069,0.042,0.099
		c0.027,0.027,0.064,0.041,0.104,0.041c0.036,0,0.068-0.014,0.098-0.041c0.027-0.029,0.041-0.066,0.041-0.099
		c0-0.037-0.019-0.073-0.041-0.098C42.06,45.342,41.962,45.342,41.911,45.397z"/>
	<path fill="#231F20" d="M44.701,45.394c-0.023,0.028-0.041,0.064-0.041,0.102c0,0.038,0.018,0.069,0.041,0.099
		c0.028,0.022,0.065,0.041,0.103,0.041c0.038,0,0.07-0.019,0.099-0.041c0.021-0.029,0.042-0.061,0.042-0.099
		c0-0.037-0.021-0.073-0.042-0.102C44.847,45.342,44.753,45.347,44.701,45.394z"/>
	<path fill="#231F20" d="M47.492,45.397c-0.023,0.024-0.037,0.061-0.037,0.098c0,0.032,0.014,0.069,0.042,0.099
		c0.027,0.027,0.061,0.041,0.099,0.041c0.031,0,0.069-0.014,0.098-0.041c0.027-0.029,0.041-0.066,0.041-0.099
		c0-0.037-0.019-0.073-0.041-0.098C47.641,45.342,47.549,45.342,47.492,45.397z"/>
	<path fill="#231F20" d="M41.357,58.814c-0.027,0.028-0.042,0.06-0.042,0.097c0,0.039,0.015,0.075,0.042,0.103
		c0.028,0.023,0.062,0.038,0.098,0.038c0.037,0,0.07-0.015,0.098-0.038c0.028-0.027,0.042-0.063,0.042-0.103
		c0-0.037-0.014-0.068-0.042-0.097C41.496,58.763,41.407,58.763,41.357,58.814z"/>
	<path fill="#231F20" d="M41.451,56.256c0.036,0,0.068-0.014,0.098-0.043c0.027-0.022,0.041-0.059,0.041-0.097
		c0-0.037-0.014-0.069-0.041-0.097c-0.048-0.053-0.15-0.053-0.201,0c-0.022,0.027-0.036,0.06-0.036,0.097
		c0,0.038,0.014,0.074,0.041,0.104C41.376,56.242,41.412,56.256,41.451,56.256z"/>
	<path fill="#231F20" d="M41.911,56.576c-0.027,0.029-0.042,0.066-0.042,0.099c0,0.037,0.015,0.074,0.042,0.102
		c0.023,0.023,0.061,0.038,0.098,0.038s0.074-0.015,0.104-0.043c0.022-0.022,0.036-0.06,0.036-0.097
		c0-0.032-0.014-0.069-0.036-0.093C42.06,56.525,41.958,56.525,41.911,56.576z"/>
	<path fill="#231F20" d="M42.469,57.141c-0.027,0.022-0.042,0.06-0.042,0.096c0,0.033,0.015,0.071,0.042,0.099
		c0.029,0.028,0.061,0.041,0.098,0.041c0.042,0,0.074-0.018,0.098-0.041c0.029-0.023,0.042-0.061,0.042-0.099
		c0-0.041-0.013-0.073-0.037-0.096C42.618,57.083,42.516,57.089,42.469,57.141z"/>
	<path fill="#231F20" d="M43.026,57.697c-0.027,0.028-0.041,0.062-0.041,0.099c0,0.031,0.014,0.069,0.046,0.103
		c0.023,0.022,0.061,0.036,0.099,0.036c0.032,0,0.069-0.014,0.098-0.042c0.023-0.021,0.036-0.061,0.036-0.097
		c0-0.037-0.013-0.073-0.036-0.099C43.171,57.643,43.083,57.643,43.026,57.697z"/>
	<path fill="#231F20" d="M41.446,53.461c0.037,0,0.069-0.015,0.103-0.042c0.023-0.029,0.036-0.062,0.036-0.098
		c0-0.032-0.013-0.07-0.041-0.098c-0.057-0.051-0.146-0.051-0.2,0c-0.023,0.027-0.037,0.065-0.037,0.098
		c0,0.036,0.014,0.068,0.041,0.103C41.376,53.446,41.407,53.461,41.446,53.461z"/>
	<path fill="#231F20" d="M42.003,54.019c0.038,0,0.075-0.014,0.098-0.037c0.029-0.028,0.043-0.061,0.043-0.097
		c0-0.039-0.014-0.075-0.037-0.1c-0.051-0.054-0.154-0.054-0.2-0.004c-0.028,0.028-0.043,0.064-0.043,0.104
		c0,0.036,0.015,0.068,0.043,0.097C41.93,54.005,41.967,54.019,42.003,54.019z"/>
	<path fill="#231F20" d="M42.562,54.582c0.037,0,0.074-0.016,0.097-0.042c0.028-0.028,0.043-0.061,0.043-0.098
		c0-0.038-0.015-0.075-0.043-0.098c-0.051-0.057-0.144-0.057-0.2,0c-0.022,0.027-0.036,0.06-0.036,0.098
		c0,0.032,0.014,0.065,0.043,0.098C42.492,54.566,42.525,54.582,42.562,54.582z"/>
	<path fill="#231F20" d="M43.12,55.14c0.037,0,0.075-0.015,0.103-0.042C43.246,55.07,43.26,55.036,43.26,55
		s-0.014-0.074-0.037-0.098c-0.052-0.056-0.154-0.051-0.2,0c-0.028,0.023-0.041,0.062-0.041,0.098s0.013,0.07,0.041,0.098
		C43.05,55.125,43.083,55.14,43.12,55.14z"/>
	<path fill="#231F20" d="M43.581,55.46c-0.023,0.027-0.042,0.062-0.042,0.099s0.019,0.07,0.047,0.103
		c0.027,0.022,0.06,0.036,0.098,0.036c0.032,0,0.068-0.014,0.098-0.041c0.027-0.027,0.042-0.061,0.042-0.098
		s-0.02-0.071-0.042-0.099C43.729,55.41,43.631,55.41,43.581,55.46z"/>
	<path fill="#231F20" d="M44.139,56.02c-0.023,0.027-0.037,0.06-0.037,0.097c0,0.038,0.014,0.074,0.037,0.097
		c0.028,0.029,0.064,0.043,0.104,0.043c0.036,0,0.068-0.014,0.097-0.043c0.028-0.022,0.042-0.059,0.042-0.097
		c0-0.033-0.014-0.069-0.042-0.097C44.283,55.967,44.194,55.967,44.139,56.02z"/>
	<path fill="#231F20" d="M44.701,56.582c-0.027,0.023-0.041,0.061-0.041,0.097c0,0.033,0.014,0.07,0.041,0.098
		c0.028,0.027,0.062,0.043,0.098,0.043c0.037,0,0.075-0.02,0.099-0.043c0.026-0.027,0.041-0.06,0.041-0.098
		c0-0.036-0.015-0.073-0.041-0.103C44.847,56.525,44.753,56.525,44.701,56.582z"/>
	<path fill="#231F20" d="M41.441,50.664c0.037,0,0.069-0.012,0.097-0.041c0.029-0.023,0.043-0.06,0.043-0.098
		c0-0.037-0.02-0.074-0.043-0.093c-0.051-0.056-0.146-0.056-0.199-0.005c-0.023,0.027-0.036,0.065-0.036,0.098
		c0,0.038,0.013,0.07,0.041,0.103C41.371,50.652,41.403,50.664,41.441,50.664z"/>
	<path fill="#231F20" d="M42,51.223c0.036,0,0.073-0.013,0.097-0.036c0.028-0.027,0.043-0.065,0.043-0.103s-0.015-0.07-0.039-0.094
		c-0.05-0.055-0.153-0.055-0.198-0.005c-0.029,0.028-0.043,0.066-0.043,0.099c0,0.037,0.014,0.07,0.043,0.103
		C41.926,51.21,41.962,51.223,42,51.223z"/>
	<path fill="#231F20" d="M42.558,51.786c0.038,0,0.069-0.015,0.102-0.042c0.023-0.027,0.037-0.065,0.037-0.098
		c0-0.036-0.014-0.07-0.037-0.098c-0.051-0.057-0.144-0.057-0.2,0c-0.027,0.027-0.041,0.062-0.041,0.098
		c0,0.032,0.014,0.07,0.041,0.098S42.525,51.786,42.558,51.786z"/>
	<path fill="#231F20" d="M43.115,52.344c0.037,0,0.074-0.013,0.104-0.046c0.027-0.023,0.036-0.061,0.036-0.094
		c0-0.036-0.009-0.069-0.042-0.102c-0.056-0.051-0.139-0.051-0.195,0.005c-0.027,0.027-0.041,0.061-0.041,0.097
		c0,0.033,0.014,0.07,0.041,0.098C43.046,52.331,43.083,52.344,43.115,52.344z"/>
	<path fill="#231F20" d="M43.576,52.664c-0.022,0.023-0.037,0.062-0.037,0.099c0,0.038,0.015,0.07,0.042,0.103
		c0.027,0.023,0.062,0.038,0.098,0.038c0.032,0,0.068-0.015,0.098-0.042c0.027-0.028,0.042-0.061,0.042-0.099
		c0-0.037-0.019-0.075-0.042-0.099C43.72,52.609,43.627,52.613,43.576,52.664z"/>
	<path fill="#231F20" d="M44.236,53.461c0.038,0,0.07-0.015,0.098-0.042c0.029-0.022,0.042-0.062,0.042-0.098
		c0-0.037-0.019-0.075-0.042-0.098c-0.051-0.051-0.148-0.051-0.195,0c-0.028,0.027-0.042,0.061-0.042,0.098
		c0,0.036,0.014,0.068,0.042,0.103C44.167,53.446,44.198,53.461,44.236,53.461z"/>
	<path fill="#231F20" d="M44.794,54.023c0.038,0,0.075-0.019,0.098-0.042c0.028-0.028,0.042-0.061,0.042-0.102
		c0-0.034-0.014-0.07-0.042-0.095c-0.045-0.054-0.148-0.054-0.195-0.004c-0.027,0.028-0.041,0.064-0.041,0.099
		c0,0.041,0.014,0.073,0.041,0.102C44.72,54.005,44.758,54.023,44.794,54.023z"/>
	<path fill="#231F20" d="M45.256,54.345c-0.028,0.022-0.042,0.06-0.042,0.098c0,0.037,0.014,0.069,0.042,0.098
		c0.026,0.026,0.061,0.042,0.098,0.042c0.036,0,0.074-0.016,0.097-0.042c0.028-0.028,0.042-0.061,0.042-0.098
		c0-0.038-0.014-0.075-0.037-0.098C45.403,54.288,45.301,54.292,45.256,54.345z"/>
	<path fill="#231F20" d="M45.813,54.902c-0.029,0.029-0.041,0.062-0.041,0.098s0.012,0.07,0.041,0.102
		c0.027,0.023,0.064,0.038,0.098,0.038c0.037,0,0.069-0.015,0.102-0.042c0.024-0.027,0.038-0.062,0.038-0.098
		s-0.014-0.068-0.038-0.098C45.962,54.852,45.869,54.847,45.813,54.902z"/>
	<path fill="#231F20" d="M46.377,55.46c-0.029,0.023-0.043,0.062-0.043,0.099s0.014,0.074,0.038,0.098
		c0.027,0.027,0.064,0.041,0.103,0.041c0.032,0,0.063-0.014,0.096-0.041c0.029-0.027,0.044-0.061,0.044-0.098
		s-0.021-0.071-0.044-0.099C46.521,55.404,46.418,55.41,46.377,55.46z"/>
	<path fill="#231F20" d="M41.437,47.87c0.038,0,0.07-0.014,0.099-0.043c0.026-0.027,0.041-0.06,0.041-0.096
		c0-0.038-0.015-0.071-0.041-0.099c-0.052-0.052-0.149-0.052-0.2,0c-0.023,0.027-0.037,0.061-0.037,0.099
		c0,0.036,0.014,0.068,0.037,0.101C41.362,47.856,41.398,47.87,41.437,47.87z"/>
	<path fill="#231F20" d="M41.994,48.428c0.033,0,0.07-0.014,0.098-0.041c0.029-0.023,0.043-0.062,0.043-0.099
		c0-0.032-0.014-0.068-0.043-0.097c-0.051-0.052-0.145-0.052-0.194,0c-0.028,0.028-0.043,0.064-0.043,0.097
		c0,0.036,0.015,0.075,0.043,0.103C41.926,48.414,41.958,48.428,41.994,48.428z"/>
	<path fill="#231F20" d="M42.553,48.991c0.037,0,0.07-0.015,0.103-0.042c0.023-0.028,0.038-0.065,0.038-0.098
		c0-0.037-0.015-0.076-0.042-0.098c-0.052-0.056-0.149-0.056-0.197,0c-0.027,0.021-0.041,0.061-0.041,0.098
		c0,0.032,0.014,0.069,0.041,0.098C42.483,48.977,42.516,48.991,42.553,48.991z"/>
	<path fill="#231F20" d="M43.111,49.549c0.041,0,0.078-0.018,0.097-0.041c0.028-0.024,0.043-0.062,0.043-0.098
		c0-0.039-0.015-0.075-0.038-0.099c-0.051-0.056-0.154-0.05-0.199,0c-0.028,0.023-0.042,0.06-0.042,0.099
		c0,0.036,0.014,0.068,0.042,0.098C43.041,49.535,43.074,49.549,43.111,49.549z"/>
	<path fill="#231F20" d="M43.674,50.107c0.032,0,0.069-0.014,0.097-0.043c0.029-0.027,0.043-0.064,0.043-0.097
		c0-0.037-0.014-0.07-0.043-0.098c-0.055-0.057-0.148-0.052-0.199,0c-0.022,0.027-0.041,0.061-0.041,0.098
		c0,0.038,0.015,0.069,0.046,0.104C43.604,50.094,43.637,50.107,43.674,50.107z"/>
	<path fill="#231F20" d="M44.232,50.664c0.033,0,0.069-0.012,0.097-0.041c0.028-0.027,0.043-0.06,0.043-0.098
		c0-0.037-0.021-0.074-0.043-0.098c-0.051-0.051-0.144-0.051-0.194,0c-0.029,0.023-0.042,0.061-0.042,0.098
		c0,0.038,0.013,0.07,0.042,0.103C44.162,50.652,44.194,50.664,44.232,50.664z"/>
	<path fill="#231F20" d="M44.79,51.223c0.032,0,0.069-0.009,0.102-0.041c0.023-0.022,0.038-0.061,0.038-0.098
		c0-0.032-0.015-0.07-0.038-0.094c-0.05-0.055-0.153-0.055-0.199-0.005c-0.028,0.028-0.042,0.066-0.042,0.099
		c0,0.037,0.014,0.075,0.042,0.103C44.72,51.214,44.753,51.223,44.79,51.223z"/>
	<path fill="#231F20" d="M45.349,51.786c0.037,0,0.073-0.019,0.102-0.046c0.023-0.023,0.037-0.062,0.037-0.094
		c0-0.036-0.014-0.074-0.037-0.098c-0.052-0.057-0.152-0.057-0.2-0.004c-0.027,0.027-0.041,0.065-0.041,0.102
		c0,0.032,0.014,0.07,0.041,0.098C45.277,51.768,45.31,51.786,45.349,51.786z"/>
	<path fill="#231F20" d="M45.906,52.344c0.037,0,0.07-0.013,0.104-0.042c0.021-0.027,0.036-0.064,0.036-0.098
		c0-0.036-0.015-0.069-0.036-0.097c-0.057-0.056-0.141-0.061-0.205,0c-0.023,0.027-0.038,0.061-0.038,0.097
		c0,0.033,0.015,0.07,0.042,0.098C45.837,52.331,45.873,52.344,45.906,52.344z"/>
	<path fill="#231F20" d="M46.469,52.903c0.038,0,0.069-0.015,0.098-0.042c0.023-0.023,0.043-0.061,0.043-0.099
		c0-0.037-0.02-0.075-0.043-0.099c-0.046-0.051-0.145-0.055-0.2,0c-0.022,0.023-0.037,0.062-0.037,0.099
		c0,0.038,0.015,0.075,0.037,0.099C46.396,52.889,46.433,52.903,46.469,52.903z"/>
	<path fill="#231F20" d="M46.929,53.224c-0.027,0.027-0.041,0.061-0.041,0.098c0,0.036,0.014,0.075,0.041,0.098
		c0.023,0.027,0.061,0.042,0.099,0.042s0.074-0.015,0.098-0.042c0.028-0.022,0.041-0.062,0.041-0.098
		c0-0.032-0.013-0.07-0.041-0.098C47.068,53.173,46.98,53.173,46.929,53.224z"/>
	<path fill="#231F20" d="M47.483,53.785c-0.023,0.024-0.037,0.061-0.037,0.1c0,0.032,0.014,0.068,0.041,0.097
		c0.028,0.028,0.062,0.042,0.098,0.042c0.037,0,0.069-0.019,0.098-0.042c0.028-0.028,0.042-0.061,0.042-0.097
		c0-0.039-0.014-0.075-0.042-0.104C47.632,53.731,47.54,53.731,47.483,53.785z"/>
	<path fill="#231F20" d="M48.047,54.345c-0.029,0.022-0.042,0.06-0.042,0.098c0,0.037,0.013,0.069,0.042,0.098
		c0.026,0.026,0.06,0.042,0.098,0.042c0.036,0,0.073-0.016,0.096-0.042c0.029-0.028,0.043-0.061,0.043-0.098
		c0-0.038-0.014-0.075-0.043-0.098C48.189,54.288,48.106,54.288,48.047,54.345z"/>
	<path fill="#231F20" d="M42.548,46.195c0.037,0,0.075-0.015,0.099-0.042c0.026-0.027,0.041-0.06,0.041-0.098
		c0-0.036-0.015-0.074-0.041-0.103c-0.051-0.051-0.14-0.051-0.201,0.006c-0.022,0.027-0.036,0.061-0.036,0.097
		c0,0.033,0.014,0.065,0.041,0.098C42.478,46.181,42.511,46.195,42.548,46.195z"/>
	<path fill="#231F20" d="M43.106,46.753c0.037,0,0.073-0.013,0.102-0.041c0.024-0.027,0.038-0.061,0.038-0.099
		c0-0.037-0.014-0.073-0.038-0.098c-0.051-0.056-0.153-0.051-0.199,0c-0.027,0.024-0.042,0.061-0.042,0.098
		c0,0.038,0.015,0.071,0.042,0.099C43.036,46.74,43.068,46.753,43.106,46.753z"/>
	<path fill="#231F20" d="M43.665,47.312c0.037,0,0.073-0.014,0.103-0.042c0.021-0.023,0.036-0.061,0.036-0.097
		c0-0.037-0.015-0.075-0.036-0.099c-0.052-0.055-0.154-0.052-0.201,0c-0.021,0.023-0.042,0.062-0.042,0.099
		c0,0.036,0.015,0.069,0.047,0.103C43.595,47.298,43.631,47.312,43.665,47.312z"/>
	<path fill="#231F20" d="M44.227,47.87c0.039,0,0.071-0.014,0.099-0.043c0.026-0.022,0.042-0.06,0.042-0.096
		c0-0.038-0.016-0.071-0.042-0.099c-0.051-0.052-0.144-0.052-0.199,0c-0.024,0.027-0.038,0.061-0.038,0.099
		c0,0.036,0.014,0.073,0.038,0.096C44.153,47.856,44.189,47.87,44.227,47.87z"/>
	<path fill="#231F20" d="M44.785,48.428c0.037,0,0.074-0.014,0.098-0.041c0.027-0.023,0.041-0.062,0.041-0.099
		c0-0.032-0.014-0.068-0.041-0.097c-0.051-0.052-0.153-0.047-0.195,0c-0.027,0.028-0.042,0.06-0.042,0.097
		c0,0.036,0.015,0.075,0.042,0.103C44.71,48.414,44.749,48.428,44.785,48.428z"/>
	<path fill="#231F20" d="M45.344,48.991c0.037,0,0.073-0.02,0.098-0.042c0.028-0.028,0.042-0.062,0.042-0.098
		c0-0.037-0.014-0.076-0.037-0.098c-0.052-0.056-0.154-0.056-0.201-0.005c-0.027,0.026-0.041,0.065-0.041,0.103
		c0,0.036,0.014,0.069,0.041,0.098C45.269,48.972,45.307,48.991,45.344,48.991z"/>
	<path fill="#231F20" d="M45.902,49.549c0.036,0,0.074-0.014,0.101-0.041c0.024-0.029,0.039-0.062,0.039-0.098
		c0-0.039-0.015-0.075-0.039-0.099c-0.05-0.056-0.153-0.05-0.198,0c-0.023,0.023-0.042,0.06-0.042,0.099
		c0,0.036,0.013,0.068,0.042,0.098C45.832,49.535,45.864,49.549,45.902,49.549z"/>
	<path fill="#231F20" d="M46.464,50.107c0.038,0,0.07-0.014,0.098-0.043c0.023-0.022,0.044-0.059,0.044-0.097
		c0-0.037-0.021-0.074-0.044-0.098c-0.051-0.052-0.153-0.052-0.199,0c-0.023,0.023-0.042,0.061-0.042,0.098
		c0,0.038,0.019,0.074,0.042,0.097C46.39,50.094,46.422,50.107,46.464,50.107z"/>
	<path fill="#231F20" d="M47.022,50.664c0.037,0,0.07-0.012,0.098-0.036c0.022-0.028,0.041-0.064,0.041-0.103
		c0-0.037-0.019-0.074-0.041-0.093c-0.052-0.061-0.147-0.056-0.195-0.005c-0.028,0.027-0.041,0.061-0.041,0.098
		c0,0.038,0.013,0.07,0.041,0.103C46.952,50.652,46.985,50.664,47.022,50.664z"/>
	<path fill="#231F20" d="M47.581,51.223c0.036,0,0.068-0.009,0.102-0.041c0.023-0.022,0.038-0.061,0.038-0.098
		c0-0.032-0.015-0.07-0.038-0.094c-0.056-0.055-0.154-0.055-0.199-0.005c-0.028,0.028-0.042,0.066-0.042,0.099
		c0,0.037,0.014,0.075,0.042,0.103C47.511,51.214,47.543,51.223,47.581,51.223z"/>
	<path fill="#231F20" d="M48.14,51.786c0.037,0,0.073-0.019,0.097-0.042c0.027-0.027,0.042-0.065,0.042-0.098
		c0-0.036-0.015-0.074-0.038-0.098c-0.051-0.057-0.152-0.057-0.199-0.004c-0.027,0.027-0.042,0.065-0.042,0.102
		c0,0.032,0.015,0.07,0.042,0.098C48.068,51.768,48.101,51.786,48.14,51.786z"/>
	<path fill="#231F20" d="M48.599,52.107c-0.023,0.022-0.041,0.061-0.041,0.097c0,0.038,0.014,0.07,0.041,0.098
		c0.029,0.029,0.062,0.042,0.098,0.042c0.038,0,0.075-0.013,0.104-0.042c0.021-0.027,0.036-0.06,0.036-0.098
		c0-0.036-0.015-0.074-0.036-0.097C48.748,52.056,48.655,52.052,48.599,52.107z"/>
	<path fill="#231F20" d="M49.157,52.664c-0.022,0.023-0.037,0.062-0.037,0.099c0,0.038,0.015,0.07,0.042,0.103
		c0.027,0.023,0.062,0.038,0.098,0.038c0.032,0,0.068-0.015,0.098-0.042c0.027-0.028,0.042-0.061,0.042-0.099
		c0-0.037-0.019-0.075-0.042-0.099C49.301,52.609,49.209,52.613,49.157,52.664z"/>
	<path fill="#231F20" d="M49.716,53.224c-0.023,0.027-0.037,0.065-0.037,0.098c0,0.036,0.014,0.068,0.041,0.103
		c0.028,0.022,0.06,0.037,0.099,0.037c0.032,0,0.069-0.015,0.098-0.042c0.028-0.029,0.041-0.062,0.041-0.098
		c0-0.032-0.013-0.07-0.041-0.102C49.859,53.168,49.771,53.173,49.716,53.224z"/>
	<path fill="#231F20" d="M50.376,53.743c-0.036,0-0.072,0.013-0.098,0.038c-0.028,0.028-0.042,0.064-0.042,0.104
		c0,0.032,0.014,0.068,0.042,0.097c0.023,0.023,0.06,0.037,0.097,0.037s0.075-0.014,0.098-0.037
		c0.027-0.022,0.043-0.061,0.043-0.097c0-0.042-0.021-0.08-0.043-0.104C50.448,53.756,50.411,53.743,50.376,53.743z"/>
	<path fill="#231F20" d="M45.339,46.195c0.037,0,0.074-0.019,0.099-0.042c0.026-0.027,0.041-0.06,0.041-0.098
		c0-0.042-0.015-0.074-0.037-0.097c-0.052-0.057-0.153-0.057-0.2,0c-0.027,0.022-0.041,0.061-0.041,0.097
		c0,0.033,0.014,0.07,0.041,0.098S45.301,46.195,45.339,46.195z"/>
	<path fill="#231F20" d="M45.897,46.753c0.037,0,0.069-0.013,0.101-0.041c0.025-0.027,0.039-0.065,0.039-0.099
		c0-0.037-0.014-0.073-0.039-0.098c-0.05-0.056-0.152-0.051-0.198,0c-0.027,0.024-0.043,0.061-0.043,0.098
		c0,0.033,0.016,0.071,0.043,0.099C45.827,46.74,45.864,46.753,45.897,46.753z"/>
	<path fill="#231F20" d="M46.454,47.312c0.039,0,0.075-0.014,0.104-0.042c0.022-0.023,0.042-0.061,0.042-0.097
		c0-0.037-0.02-0.075-0.042-0.099c-0.051-0.052-0.153-0.052-0.201,0c-0.022,0.023-0.041,0.062-0.041,0.099
		c0,0.036,0.014,0.073,0.041,0.097C46.386,47.298,46.418,47.312,46.454,47.312z"/>
	<path fill="#231F20" d="M47.018,47.87c0.032,0,0.071-0.014,0.099-0.043c0.026-0.022,0.041-0.06,0.041-0.096
		c0-0.038-0.015-0.071-0.041-0.099c-0.057-0.052-0.144-0.056-0.2,0c-0.023,0.027-0.037,0.064-0.037,0.099
		c0,0.036,0.014,0.068,0.041,0.101C46.947,47.856,46.98,47.87,47.018,47.87z"/>
	<path fill="#231F20" d="M47.576,48.428c0.037,0,0.069-0.014,0.098-0.037c0.027-0.027,0.042-0.066,0.042-0.103
		c0-0.032-0.015-0.068-0.037-0.094c-0.052-0.055-0.154-0.055-0.2-0.003c-0.027,0.028-0.042,0.064-0.042,0.097
		c0,0.036,0.015,0.075,0.042,0.103C47.501,48.414,47.54,48.428,47.576,48.428z"/>
	<path fill="#231F20" d="M48.136,48.991c0.036,0,0.072-0.02,0.096-0.042c0.029-0.028,0.043-0.065,0.043-0.098
		c0-0.037-0.014-0.07-0.043-0.103c-0.055-0.051-0.144-0.051-0.199,0.005c-0.024,0.027-0.038,0.061-0.038,0.098
		c0,0.032,0.014,0.069,0.042,0.098C48.06,48.972,48.097,48.991,48.136,48.991z"/>
	<path fill="#231F20" d="M48.692,49.549c0.036,0,0.069-0.014,0.102-0.041c0.023-0.029,0.039-0.065,0.039-0.098
		c0-0.039-0.016-0.075-0.039-0.099c-0.05-0.056-0.153-0.05-0.199,0c-0.028,0.023-0.042,0.06-0.042,0.099
		c0,0.032,0.014,0.068,0.042,0.102C48.623,49.535,48.66,49.549,48.692,49.549z"/>
	<path fill="#231F20" d="M49.255,50.107c0.032,0,0.07-0.014,0.098-0.043c0.028-0.027,0.042-0.064,0.042-0.097
		c0-0.037-0.019-0.07-0.042-0.098c-0.056-0.057-0.154-0.052-0.2,0c-0.022,0.023-0.041,0.061-0.041,0.098
		c0,0.038,0.015,0.069,0.046,0.104C49.18,50.094,49.219,50.107,49.255,50.107z"/>
	<path fill="#231F20" d="M49.813,50.664c0.037,0,0.069-0.012,0.097-0.041c0.029-0.023,0.042-0.06,0.042-0.098
		c0-0.032-0.013-0.07-0.042-0.098c-0.051-0.051-0.144-0.051-0.194,0c-0.028,0.027-0.041,0.061-0.041,0.098
		c0,0.042,0.013,0.074,0.036,0.098C49.738,50.652,49.771,50.664,49.813,50.664z"/>
	<path fill="#231F20" d="M48.129,46.195c0.038,0,0.075-0.019,0.099-0.042c0.026-0.027,0.042-0.064,0.042-0.098
		c0-0.036-0.016-0.069-0.042-0.103c-0.051-0.051-0.136-0.055-0.201,0.006c-0.021,0.027-0.036,0.061-0.036,0.097
		c0,0.038,0.015,0.07,0.042,0.098C48.056,46.177,48.092,46.195,48.129,46.195z"/>
	<path fill="#231F20" d="M48.688,46.753c0.038,0,0.074-0.013,0.102-0.041c0.024-0.027,0.038-0.061,0.038-0.099
		c0-0.037-0.014-0.068-0.038-0.098c-0.05-0.051-0.143-0.056-0.199,0c-0.027,0.029-0.042,0.061-0.042,0.098
		c0,0.038,0.015,0.071,0.042,0.099C48.617,46.74,48.65,46.753,48.688,46.753z"/>
	<path fill="#231F20" d="M49.246,47.312c0.041,0,0.079-0.014,0.098-0.036c0.027-0.029,0.041-0.066,0.041-0.103
		c0-0.037-0.014-0.075-0.036-0.099c-0.052-0.052-0.154-0.052-0.201,0c-0.021,0.023-0.041,0.062-0.041,0.099
		c0,0.036,0.02,0.073,0.041,0.097C49.176,47.298,49.209,47.312,49.246,47.312z"/>
	<path fill="#231F20" d="M49.809,47.87c0.038,0,0.07-0.014,0.099-0.043c0.022-0.022,0.041-0.06,0.041-0.096
		c0-0.034-0.015-0.071-0.041-0.099c-0.052-0.052-0.145-0.052-0.2,0c-0.023,0.027-0.037,0.061-0.037,0.099
		c0,0.036,0.014,0.073,0.037,0.096C49.734,47.856,49.767,47.87,49.809,47.87z"/>
	<path fill="#231F20" d="M50.366,48.428c0.033,0,0.069-0.014,0.098-0.041c0.027-0.028,0.043-0.062,0.043-0.099
		c0-0.032-0.016-0.068-0.038-0.094c-0.026-0.027-0.064-0.041-0.102-0.041c-0.038,0-0.075,0.012-0.098,0.038
		c-0.029,0.028-0.043,0.064-0.043,0.097c0,0.036,0.014,0.07,0.043,0.103C50.297,48.414,50.329,48.428,50.366,48.428z"/>
	<path fill="#231F20" d="M40,43.932V43.93c-0.006-0.001-0.011-0.004-0.016-0.004c-0.007,0.004-0.01,0.008-0.029,0.008
		C39.951,43.934,39.976,43.933,40,43.932z"/>
	<path fill="#231F20" d="M39.957,42.601c0.013,0,0.012,0.003,0.019,0.005c0.002,0,0.004-0.002,0.006-0.002
		C39.97,42.603,39.951,42.601,39.957,42.601z"/>
	<path fill="#231F20" d="M39.998,50.022c-0.006,0-0.011,0.003-0.017,0.003c0.006,0.001,0.014,0.002,0.011,0.002
		C39.984,50.027,40.008,50.022,39.998,50.022z"/>
	<path fill="#231F20" d="M39.998,42.601c-0.006,0-0.011,0.003-0.017,0.003c0.006,0.001,0.014,0.002,0.011,0.002
		C39.984,42.605,40.008,42.601,39.998,42.601z"/>
	<path fill="#231F20" d="M39.998,46.311c-0.006,0-0.012,0.004-0.018,0.004c0.007,0.001,0.016,0.002,0.012,0.002
		C39.984,46.316,40.008,46.311,39.998,46.311z"/>
	<path fill="#231F20" d="M39.957,46.311c0.013,0,0.012,0.003,0.019,0.005c0.001,0,0.003-0.001,0.005-0.001
		C39.968,46.312,39.952,46.311,39.957,46.311z"/>
	<path fill="#231F20" d="M74.281,19.834l-0.021,0.021c-2.02-3.51-4.57-6.677-7.556-9.379l-0.009,0.009
		C59.815,4.261,50.673,0.481,40.651,0.481c-20.626,0-37.532,17.074-38.647,36.714c-0.038,0-0.062,0.803-0.062,1.52
		c0,1.799,0.133,3.648,0.371,4.682c2.594,20.673,18.793,33.896,38.339,33.896c21.348,0,38.713-17.07,38.713-38.42
		C79.364,31.914,77.508,25.456,74.281,19.834z M40.651,71.791C24.026,71.791,10.244,60,7.704,43H21v7.395
		c0,0.567-0.087,1.094,0.392,1.399l18.392,11.837c0.271,0.173,0.487,0.259,0.796,0.259s0.572-0.086,0.843-0.259l18.699-11.837
		C60.6,51.488,61,50.962,61,50.395V29.426c0-0.593-0.448-1.14-0.961-1.436L41.383,17.242c-0.514-0.297-1.181-0.297-1.695,0
		L21.467,27.99C20.956,28.286,21,28.833,21,29.426V37H7.356C8.46,20,22.942,5.723,40.651,5.723c18.431,0,33.374,14.82,33.374,33.252
		C74.025,57.408,59.082,71.791,40.651,71.791z M23.869,45.749c0.01,0-0.056,0.005-0.046,0.005c0.351,0,0.603-0.29,0.603-0.652
		c0-0.352-0.307-0.64-0.657-0.64c-0.01,0,0.119,0.005,0.11,0.005c-0.005,0,0.121-0.002,0.121-0.003v-1.067v-1.283
		c0-0.003-0.135-0.004-0.131-0.004c0.01,0-0.056,0.006-0.046,0.006c0.371,0,0.644-0.301,0.644-0.683
		c0-0.372-0.327-0.683-0.698-0.683c-0.01,0,0.119,0.005,0.11,0.005c-0.005,0,0.121-0.001,0.121-0.003v-2.267
		c0-0.003-0.135-0.003-0.131-0.003c0.01,0-0.056,0.005-0.046,0.005c0.393,0,0.677-0.321,0.677-0.724
		c0-0.394-0.339-0.725-0.731-0.725c-0.01,0,0.119,0.006,0.11,0.006c-0.005,0,0.121-0.002,0.121-0.004v-2.195
		c0-0.001-0.135-0.003-0.131-0.003c0.01,0-0.056,0.005-0.046,0.005c0.413,0,0.718-0.341,0.718-0.754
		c0-0.414-0.359-0.755-0.772-0.755c-0.01,0,0.119,0.005,0.11,0.005c-0.005,0,0.121-0.001,0.121-0.003v-2.133
		c0-0.001-0.135-0.003-0.131-0.003c0.01,0-0.056,0.005-0.046,0.005c0.224,0,0.388-0.096,0.53-0.247l0.866,0.577
		c-0.299,0.105-0.52,0.381-0.52,0.714c0,0.434,0.352,0.775,0.775,0.775c0.01,0,0.018-0.005,0.025-0.005
		c0.009,0,0.018,0.005,0.026,0.005c0.424,0,0.775-0.342,0.775-0.766c0-0.013-0.007-0.024-0.007-0.037l5.732,3.663
		c-0.001,0.013-0.01,0.021-0.01,0.033c0,0.414,0.33,0.745,0.734,0.745c0.009,0,0.016-0.005,0.026-0.005
		c0.009,0,0.016,0.005,0.025,0.005c0.113,0,0.217-0.035,0.312-0.084l0.955,0.611l0.053,0.033c-0.153,0.131-0.255,0.318-0.255,0.535
		c0,0.402,0.32,0.724,0.713,0.724c0.009,0,0.017-0.005,0.026-0.005c0.009,0,0.016,0.005,0.025,0.005c0.323,0,0.46-0.21,0.556-0.499
		l1.441,0.944c-0.055-0.014-0.107-0.033-0.167-0.033c-0.008,0-0.014,0.005-0.021,0.005c-0.008,0-0.015-0.005-0.021-0.005
		c-0.393,0-0.702,0.312-0.702,0.704c0,0.331,0.237,0.595,0.554,0.663c0.062,0.019,0.122,0.039,0.19,0.039
		c0.393,0,0.702-0.319,0.702-0.702c0-0.16-0.062-0.301-0.149-0.418L40,41.141v1.471c-0.002-0.004-0.016-0.004-0.024-0.006
		c-0.351,0.013-0.624,0.303-0.624,0.667c0,0.349,0.287,0.633,0.633,0.653C39.998,43.919,40,43.909,40,43.899V44
		c0.003,0,0.006,0,0.008,0c-0.004,0-0.003,0-0.008,0v2.321c-0.002-0.003-0.016-0.004-0.024-0.006
		c-0.33,0.013-0.593,0.284-0.593,0.626c0,0.329,0.278,0.604,0.603,0.623C39.998,47.559,40,47.549,40,47.539V48
		c0.003,0,0.006,0,0.009,0c-0.005,0-0.004,0-0.009,0v2.033c-0.002-0.004-0.016-0.004-0.024-0.006
		c-0.318,0.013-0.551,0.271-0.551,0.584c0,0.318,0.247,0.572,0.561,0.592C39.998,51.197,40,51.188,40,51.178V51
		c0.002,0,0.004,0,0.006,0c-0.003,0-0.002,0-0.006,0v2.732c-0.002-0.003-0.016-0.004-0.024-0.005
		c-0.298,0.012-0.52,0.251-0.52,0.554c0,0.297,0.236,0.531,0.529,0.551C39.998,54.825,40,54.816,40,54.805V55
		c0.002,0,0.004,0,0.006,0c-0.003,0-0.003,0-0.006,0v2.444c-0.002-0.004-0.016-0.005-0.024-0.006
		c-0.277,0.013-0.489,0.24-0.489,0.512c0,0.276,0.228,0.501,0.5,0.521C39.998,58.465,40,58.456,40,58.445v0.027
		C40.003,58.474,40.006,58,40.008,58c-0.004,0-0.003,0-0.008,0v2.115l-3.145-2.1c0.002-0.02,0.072-0.036,0.072-0.055
		c0-0.29-0.206-0.527-0.495-0.527c-0.008,0,0.002,0.004-0.005,0.004c-0.008,0-0.007-0.004-0.014-0.004
		c-0.089,0-0.164,0.028-0.238,0.066l-1.364-0.878c0.208-0.072,0.358-0.267,0.358-0.502c0-0.3-0.236-0.537-0.537-0.537
		c-0.01,0-0.018,0.006-0.025,0.006c-0.01,0-0.018-0.006-0.025-0.006c-0.291,0-0.537,0.237-0.537,0.537
		c0,0.003,0.002,0.007,0.002,0.01l-6.219-3.997c-0.086-0.127-0.218-0.214-0.375-0.241l-1.455-0.935
		c0.069-0.099,0.119-0.215,0.119-0.346c0-0.32-0.259-0.589-0.59-0.589c-0.009,0-0.018,0.005-0.026,0.005
		c-0.008,0-0.016-0.005-0.025-0.005c-0.214,0-0.243,0.118-0.345,0.282L24,49.485V49.39c0-0.001-0.135-0.003-0.131-0.003
		c0.01,0-0.056,0.005-0.046,0.005c0.341,0,0.573-0.278,0.573-0.609c0-0.342-0.287-0.621-0.628-0.621c-0.01,0,0.119,0.005,0.11,0.005
		c-0.005,0,0.121-0.001,0.121-0.003v-2.411C24,45.751,23.865,45.749,23.869,45.749z M56.579,31.98
		c-0.004-0.004,0.08-0.003,0.075-0.006L58,31.217v18.269l-9.1,5.597c0.018-0.024-0.014-0.052-0.014-0.082
		c0-0.036-0.037-0.074-0.061-0.098c-0.056-0.056-0.164-0.051-0.207-0.006c-0.027,0.029-0.051,0.067-0.051,0.104
		s0.015,0.074,0.039,0.093c0.023,0.028,0.059,0.047,0.096,0.047c0.018,0,0.029-0.014,0.046-0.02l-1.583,0.983
		c-0.004-0.03-0.012-0.06-0.032-0.08c-0.051-0.057-0.153-0.057-0.205-0.004c-0.022,0.027-0.036,0.06-0.036,0.097
		c0,0.038,0.014,0.069,0.041,0.104c0.009,0.007,0.02,0.005,0.028,0.01l-1.494,0.93c-0.005-0.005-0.004-0.015-0.008-0.019
		c-0.052-0.058-0.153-0.052-0.2-0.006c-0.023,0.028-0.042,0.065-0.042,0.102c0,0.023,0.016,0.042,0.025,0.061l-1.51,0.938
		c-0.052-0.019-0.11-0.018-0.147,0.021c-0.022,0.025-0.174,0.058-0.176,0.094L41,59.76V43.396v-2.202l1.312-0.707
		c0.004,0.026,0.078,0.053,0.102,0.073c0.027,0.027,0.094,0.042,0.131,0.042c0.043,0,0.093-0.019,0.116-0.042
		c0.027-0.023,0.051-0.06,0.051-0.098c0-0.037-0.011-0.074-0.034-0.098c-0.004-0.005-0.01-0.003-0.016-0.007l1.508-0.908
		c0.025,0.019,0.053,0.031,0.084,0.031c0.037,0,0.075-0.015,0.098-0.036c0.029-0.029,0.044-0.066,0.044-0.104
		c0-0.008-0.008-0.013-0.01-0.021l2.062-1.244l9.899-5.972c0.007,0.025,0.015,0.054,0.03,0.069c0.028,0.028,0.061,0.042,0.098,0.042
		c0.038,0,0.07-0.014,0.104-0.042c0.023-0.027,0.036-0.064,0.036-0.098C56.615,32.04,56.603,32.002,56.579,31.98z M44.302,37.195
		l-3.889,2.466l-3.855-2.466l-11.765-7.524l15.692-9.079l15.689,9.073L44.302,37.195z"/>
	<path fill="#231F20" d="M40,47.57v-0.002c-0.005-0.001-0.01-0.003-0.015-0.004c-0.006,0.004-0.01,0.008-0.03,0.008
		C39.951,47.572,39.976,47.571,40,47.57z"/>
	<path fill="#231F20" d="M40,58.476v-0.003c-0.005,0-0.009-0.002-0.014-0.002c-0.006,0.003-0.011,0.007-0.031,0.007
		C39.951,58.478,39.976,58.477,40,58.476z"/>
	<path fill="#231F20" d="M39.998,53.723c-0.007,0-0.012,0.004-0.019,0.004c0.008,0.001,0.017,0.002,0.013,0.002
		C39.984,53.729,40.008,53.723,39.998,53.723z"/>
	<path fill="#231F20" d="M39.957,53.723c0.013,0,0.012,0.003,0.019,0.005c0.002-0.001,0.003-0.001,0.004-0.001
		C39.968,53.725,39.952,53.723,39.957,53.723z"/>
	<path fill="#231F20" d="M40,51.208L40,51.208c-0.005-0.002-0.01-0.004-0.015-0.005c-0.007,0.004-0.011,0.008-0.03,0.008
		C39.951,51.211,39.976,51.21,40,51.208z"/>
	<path fill="#231F20" d="M40,54.836L40,54.836c-0.005-0.002-0.01-0.004-0.015-0.004c-0.007,0.003-0.011,0.007-0.03,0.007
		C39.951,54.839,39.976,54.838,40,54.836z"/>
	<path fill="#231F20" d="M39.957,57.434c0.013,0,0.012,0.003,0.019,0.005c0.002-0.001,0.004-0.001,0.006-0.001
		C39.97,57.436,39.951,57.434,39.957,57.434z"/>
	<path fill="#231F20" d="M39.957,50.022c0.013,0,0.012,0.003,0.019,0.005c0.002,0,0.004-0.002,0.006-0.002
		C39.97,50.024,39.951,50.022,39.957,50.022z"/>
	<path fill="#231F20" d="M39.998,57.434c-0.006,0-0.011,0.003-0.017,0.004c0.006,0,0.014,0.001,0.011,0.001
		C39.984,57.438,40.008,57.434,39.998,57.434z"/>
	<path fill="#231F20" d="M38.304,55.583c-0.009,0-0.018,0.006-0.026,0.006s-0.018-0.006-0.026-0.006c-0.3,0-0.537,0.237-0.537,0.537
		s0.237,0.538,0.537,0.538c0.009,0,0.018-0.005,0.026-0.005s0.018,0.005,0.026,0.005c0.288,0,0.537-0.238,0.537-0.538
		S38.592,55.583,38.304,55.583z"/>
	<path fill="#231F20" d="M38.304,51.873c-0.009,0-0.018,0.005-0.026,0.005s-0.018-0.005-0.026-0.005
		c-0.32,0-0.578,0.258-0.578,0.578c0,0.31,0.258,0.578,0.578,0.578c0.018,0,0.032-0.009,0.05-0.011c0.001,0,0.002,0.001,0.003,0.001
		c0.31,0,0.568-0.259,0.568-0.568C38.872,52.131,38.613,51.873,38.304,51.873z"/>
	<path fill="#231F20" d="M34.634,51.873c-0.008,0-0.014,0.004-0.021,0.004c-0.007,0-0.014-0.004-0.021-0.004
		c-0.33,0-0.578,0.258-0.578,0.578c0,0.31,0.248,0.578,0.578,0.578c0.052,0,0.097-0.017,0.145-0.031
		c0.27-0.049,0.477-0.272,0.477-0.547C35.213,52.131,34.954,51.873,34.634,51.873z"/>
	<path fill="#231F20" d="M38.304,48.161c-0.009,0-0.018,0.005-0.026,0.005s-0.018-0.005-0.026-0.005
		c-0.341,0-0.609,0.279-0.609,0.621c0,0.331,0.269,0.609,0.609,0.609c0.009,0,0.018-0.005,0.026-0.005s0.018,0.005,0.026,0.005
		c0.33,0,0.609-0.278,0.609-0.609C38.913,48.44,38.634,48.161,38.304,48.161z"/>
	<path fill="#231F20" d="M34.634,48.161c-0.01,0-0.017,0.005-0.025,0.005c-0.01,0-0.018-0.005-0.026-0.005
		c-0.331,0-0.61,0.279-0.61,0.621c0,0.331,0.279,0.609,0.61,0.609c0.009,0,0.017-0.005,0.026-0.005c0.009,0,0.016,0.005,0.025,0.005
		c0.341,0,0.609-0.278,0.609-0.609C35.243,48.44,34.975,48.161,34.634,48.161z"/>
	<path fill="#231F20" d="M38.304,44.462c-0.009,0-0.018,0.005-0.026,0.005s-0.018-0.005-0.026-0.005
		c-0.361,0-0.651,0.288-0.651,0.651c0,0.351,0.29,0.641,0.651,0.641c0.009,0,0.018-0.005,0.026-0.005s0.018,0.005,0.026,0.005
		c0.352,0,0.64-0.29,0.64-0.652C38.943,44.75,38.655,44.462,38.304,44.462z"/>
	<path fill="#231F20" d="M34.634,44.462c-0.01,0-0.017,0.005-0.025,0.005c-0.01,0-0.018-0.005-0.026-0.005
		c-0.352,0-0.642,0.288-0.642,0.651c0,0.351,0.29,0.641,0.642,0.641c0.009,0,0.017-0.005,0.026-0.005
		c0.009,0,0.016,0.005,0.025,0.005c0.362,0,0.65-0.29,0.65-0.652C35.284,44.75,34.996,44.462,34.634,44.462z"/>
	<path fill="#231F20" d="M38.251,42.125c0.019,0,0.033-0.009,0.051-0.01c0.001,0,0.001,0,0.002,0c0.371,0,0.682-0.301,0.682-0.683
		c0-0.372-0.311-0.683-0.682-0.683c-0.009,0-0.018,0.005-0.026,0.005s-0.018-0.005-0.026-0.005c-0.383,0-0.683,0.311-0.683,0.683
		C37.568,41.814,37.868,42.125,38.251,42.125z"/>
	<path fill="#231F20" d="M34.582,42.125c0.018,0,0.033-0.009,0.05-0.01h0.002c0.382,0,0.682-0.301,0.682-0.683
		c0-0.372-0.3-0.683-0.682-0.683c-0.01,0-0.017,0.005-0.025,0.005c-0.01,0-0.018-0.005-0.026-0.005
		c-0.373,0-0.683,0.311-0.683,0.683C33.899,41.814,34.209,42.125,34.582,42.125z"/>
	<path fill="#231F20" d="M36.464,53.723c-0.008,0-0.014,0.005-0.021,0.005c-0.007,0-0.014-0.005-0.021-0.005
		c-0.31,0-0.568,0.248-0.568,0.559c0,0.31,0.259,0.558,0.568,0.558c0.007,0,0.014-0.005,0.021-0.005
		c0.008,0,0.014,0.005,0.021,0.005c0.31,0,0.558-0.248,0.558-0.558C37.021,53.971,36.773,53.723,36.464,53.723z"/>
	<path fill="#231F20" d="M32.805,53.723c-0.01,0-0.018,0.006-0.025,0.006c-0.01,0-0.018-0.006-0.026-0.006
		c-0.312,0-0.559,0.248-0.559,0.559c0,0.31,0.247,0.558,0.559,0.558c0.009,0,0.017-0.006,0.026-0.006
		c0.008,0,0.016,0.006,0.025,0.006c0.31,0,0.558-0.248,0.558-0.558C33.362,53.971,33.114,53.723,32.805,53.723z"/>
	<path fill="#231F20" d="M36.464,50.022c-0.008,0-0.014,0.004-0.021,0.004s-0.015-0.004-0.021-0.004c-0.331,0-0.6,0.259-0.6,0.589
		c0,0.331,0.269,0.6,0.6,0.6c0.059,0,0.113-0.019,0.168-0.035c0.268-0.057,0.473-0.279,0.473-0.564
		C37.062,50.291,36.794,50.022,36.464,50.022z"/>
	<path fill="#231F20" d="M32.805,50.022c-0.01,0-0.017,0.005-0.025,0.005c-0.01,0-0.018-0.005-0.026-0.005
		c-0.321,0-0.59,0.259-0.59,0.589c0,0.331,0.269,0.6,0.59,0.6c0.018,0,0.033-0.01,0.051-0.011h0.001
		c0.331,0,0.589-0.258,0.589-0.589C33.394,50.291,33.136,50.022,32.805,50.022z"/>
	<path fill="#231F20" d="M36.464,46.311c-0.008,0-0.014,0.004-0.021,0.004c-0.008,0-0.015-0.004-0.021-0.004
		c-0.352,0-0.631,0.28-0.631,0.631c0,0.352,0.279,0.631,0.631,0.631c0.007,0,0.014-0.004,0.021-0.004
		c0.007,0,0.013,0.004,0.021,0.004c0.351,0,0.629-0.279,0.629-0.631C37.093,46.591,36.814,46.311,36.464,46.311z"/>
	<path fill="#231F20" d="M32.805,46.311c-0.01,0-0.018,0.006-0.025,0.006c-0.011,0-0.018-0.006-0.026-0.006
		c-0.342,0-0.631,0.28-0.631,0.631c0,0.352,0.289,0.631,0.631,0.631c0.009,0,0.016-0.005,0.026-0.005
		c0.008,0,0.016,0.005,0.025,0.005c0.341,0,0.63-0.279,0.63-0.631C33.435,46.591,33.146,46.311,32.805,46.311z"/>
	<path fill="#231F20" d="M36.422,43.934c0.007,0,0.014-0.004,0.021-0.004c0.007,0,0.013,0.004,0.021,0.004
		c0.371,0,0.671-0.3,0.671-0.661c0-0.372-0.3-0.672-0.671-0.672c-0.008,0-0.014,0.004-0.021,0.004c-0.008,0-0.015-0.004-0.021-0.004
		c-0.372,0-0.672,0.3-0.672,0.672C35.75,43.634,36.05,43.934,36.422,43.934z"/>
	<path fill="#231F20" d="M32.805,42.601c-0.01,0-0.018,0.005-0.025,0.005c-0.011,0-0.018-0.005-0.026-0.005
		c-0.362,0-0.662,0.3-0.662,0.672c0,0.361,0.3,0.661,0.662,0.661c0.009,0,0.016-0.005,0.026-0.005c0.008,0,0.016,0.005,0.025,0.005
		c0.361,0,0.661-0.3,0.661-0.661C33.466,42.9,33.166,42.601,32.805,42.601z"/>
	<path fill="#231F20" d="M32.753,40.296L32.753,40.296c0.018,0.001,0.033,0.01,0.052,0.01c0.382,0,0.702-0.319,0.702-0.702
		c0-0.393-0.32-0.704-0.702-0.704c-0.01,0-0.018,0.006-0.025,0.006c-0.011,0-0.018-0.006-0.026-0.006
		c-0.383,0-0.704,0.312-0.704,0.704C32.049,39.986,32.37,40.296,32.753,40.296z"/>
	<path fill="#231F20" d="M31.026,51.873c-0.009,0-0.017,0.005-0.026,0.005c-0.009,0-0.017-0.005-0.025-0.005
		c-0.32,0-0.579,0.258-0.579,0.578c0,0.31,0.259,0.568,0.579,0.568c0.009,0,0.016-0.005,0.024-0.005
		c0.011,0,0.018,0.005,0.027,0.005c0.311,0,0.568-0.248,0.568-0.568S31.337,51.873,31.026,51.873z"/>
	<path fill="#231F20" d="M31.026,48.161c-0.009,0-0.017,0.005-0.026,0.005c-0.009,0-0.017-0.005-0.025-0.005
		c-0.342,0-0.61,0.279-0.61,0.621c0,0.331,0.269,0.609,0.61,0.609c0.009,0,0.017-0.005,0.025-0.005c0.01,0,0.018,0.005,0.026,0.005
		c0.33,0,0.61-0.278,0.61-0.609C31.637,48.44,31.356,48.161,31.026,48.161z"/>
	<path fill="#231F20" d="M27.356,48.161c-0.007,0-0.013,0.004-0.021,0.004s-0.014-0.004-0.021-0.004c-0.342,0-0.62,0.279-0.62,0.621
		c0,0.331,0.278,0.609,0.62,0.609c0.007,0,0.013-0.004,0.021-0.004s0.014,0.004,0.021,0.004c0.341,0,0.61-0.278,0.61-0.609
		C27.967,48.44,27.697,48.161,27.356,48.161z"/>
	<path fill="#231F20" d="M31.026,44.462c-0.009,0-0.017,0.005-0.026,0.005c-0.009,0-0.017-0.005-0.025-0.005
		c-0.361,0-0.651,0.288-0.651,0.64c0,0.362,0.29,0.652,0.651,0.652c0.009,0,0.017-0.005,0.025-0.005c0.01,0,0.018,0.005,0.026,0.005
		c0.352,0,0.641-0.29,0.641-0.652C31.667,44.75,31.378,44.462,31.026,44.462z"/>
	<path fill="#231F20" d="M27.356,44.462c-0.007,0-0.013,0.004-0.021,0.004c-0.007,0-0.013-0.004-0.02-0.004
		c-0.361,0-0.651,0.288-0.651,0.64c0,0.362,0.29,0.652,0.651,0.652c0.007,0,0.013-0.004,0.02-0.004c0.009,0,0.015,0.004,0.021,0.004
		c0.362,0,0.651-0.29,0.651-0.652C28.008,44.75,27.719,44.462,27.356,44.462z"/>
	<path fill="#231F20" d="M31.026,40.75c-0.009,0-0.017,0.005-0.026,0.005c-0.009,0-0.017-0.005-0.025-0.005
		c-0.383,0-0.682,0.311-0.682,0.683c0,0.382,0.299,0.683,0.682,0.683c0.009,0,0.017-0.006,0.025-0.006
		c0.01,0,0.018,0.006,0.026,0.006c0.372,0,0.682-0.301,0.682-0.683C31.708,41.061,31.398,40.75,31.026,40.75z"/>
	<path fill="#231F20" d="M27.356,40.75c-0.007,0-0.013,0.004-0.021,0.004s-0.014-0.004-0.021-0.004
		c-0.382,0-0.692,0.311-0.692,0.683c0,0.382,0.311,0.683,0.692,0.683c0.007,0,0.013-0.005,0.021-0.005s0.014,0.005,0.021,0.005
		c0.383,0,0.683-0.301,0.683-0.683C28.039,41.061,27.739,40.75,27.356,40.75z"/>
	<path fill="#231F20" d="M30.975,38.487c0.009,0,0.017-0.005,0.025-0.005c0.01,0,0.018,0.005,0.026,0.005
		c0.393,0,0.713-0.321,0.713-0.724c0-0.394-0.32-0.725-0.713-0.725c-0.018,0-0.033,0.01-0.05,0.011c-0.001,0-0.001,0-0.002,0
		c-0.403,0-0.724,0.32-0.724,0.714C30.251,38.166,30.571,38.487,30.975,38.487z"/>
	<path fill="#231F20" d="M27.356,37.039c-0.076,0-0.146,0.022-0.214,0.045c-0.315,0.078-0.55,0.348-0.55,0.68
		c0,0.402,0.319,0.724,0.723,0.724c0.007,0,0.013-0.005,0.02-0.005c0.009,0,0.015,0.005,0.021,0.005
		c0.403,0,0.724-0.321,0.724-0.724C28.08,37.37,27.76,37.039,27.356,37.039z"/>
	<path fill="#231F20" d="M27.315,34.848c0.007,0,0.013-0.004,0.021-0.004s0.014,0.004,0.021,0.004c0.424,0,0.755-0.341,0.755-0.754
		c0-0.414-0.331-0.755-0.755-0.755c-0.007,0-0.013,0.004-0.021,0.004s-0.014-0.004-0.021-0.004c-0.423,0-0.755,0.341-0.755,0.755
		C26.561,34.507,26.893,34.848,27.315,34.848z"/>
	<path fill="#231F20" d="M29.196,50.022c-0.009,0-0.017,0.005-0.026,0.005c-0.009,0-0.016-0.005-0.024-0.005
		c-0.331,0-0.6,0.269-0.6,0.589c0,0.331,0.269,0.589,0.6,0.589c0,0,0,0,0.001,0c0.017,0.001,0.032,0.011,0.05,0.011
		c0.321,0,0.59-0.269,0.59-0.6C29.786,50.291,29.518,50.022,29.196,50.022z"/>
	<path fill="#231F20" d="M29.187,46.311c-0.007,0-0.013,0.004-0.021,0.004c-0.007,0-0.013-0.004-0.02-0.004
		c-0.352,0-0.631,0.28-0.631,0.631c0,0.352,0.279,0.631,0.631,0.631c0.007,0,0.013-0.004,0.021-0.004s0.014,0.004,0.021,0.004
		c0.352,0,0.63-0.289,0.63-0.631C29.816,46.591,29.538,46.311,29.187,46.311z"/>
	<path fill="#231F20" d="M25.527,46.311c-0.009,0-0.017,0.006-0.026,0.006c-0.008,0-0.016-0.006-0.025-0.006
		c-0.351,0-0.631,0.28-0.631,0.631c0,0.352,0.28,0.631,0.631,0.631c0.01,0,0.018-0.005,0.026-0.005s0.017,0.005,0.025,0.005
		c0.352,0,0.631-0.289,0.631-0.631C26.158,46.591,25.879,46.311,25.527,46.311z"/>
	<path fill="#231F20" d="M29.401,42.652c-0.08-0.033-0.165-0.052-0.256-0.052c-0.373,0-0.673,0.3-0.673,0.672
		c0,0.361,0.3,0.661,0.673,0.661c0.007,0,0.013-0.004,0.02-0.004c0.009,0,0.015,0.004,0.021,0.004c0.371,0,0.671-0.3,0.671-0.661
		C29.857,42.977,29.666,42.74,29.401,42.652z"/>
	<path fill="#231F20" d="M25.653,42.636c-0.058-0.017-0.115-0.035-0.178-0.035c-0.362,0-0.662,0.3-0.662,0.672
		c0,0.361,0.3,0.661,0.662,0.661c0.01,0,0.018-0.005,0.026-0.005s0.017,0.005,0.025,0.005c0.372,0,0.661-0.3,0.661-0.661
		C26.188,42.945,25.96,42.695,25.653,42.636z"/>
	<path fill="#231F20" d="M29.187,38.899c-0.007,0-0.013,0.005-0.021,0.005c-0.007,0-0.013-0.005-0.02-0.005
		c-0.393,0-0.703,0.312-0.703,0.704c0,0.383,0.311,0.702,0.703,0.702c0.067,0,0.128-0.021,0.189-0.039
		c0.316-0.068,0.554-0.332,0.554-0.663C29.889,39.211,29.579,38.899,29.187,38.899z"/>
	<path fill="#231F20" d="M25.527,38.899c-0.009,0-0.018,0.006-0.026,0.006c-0.008,0-0.016-0.006-0.025-0.006
		c-0.382,0-0.703,0.312-0.703,0.704c0,0.383,0.321,0.702,0.703,0.702c0.019,0,0.032-0.009,0.051-0.01h0.001
		c0.383,0,0.702-0.31,0.702-0.692C26.229,39.211,25.91,38.899,25.527,38.899z"/>
	<path fill="#231F20" d="M29.146,36.668c0.007,0,0.013-0.004,0.02-0.004c0.009,0,0.015,0.004,0.021,0.004
		c0.413,0,0.744-0.331,0.744-0.745c0-0.402-0.331-0.733-0.744-0.733c-0.007,0-0.013,0.004-0.021,0.004
		c-0.007,0-0.013-0.004-0.02-0.004c-0.414,0-0.744,0.331-0.744,0.733C28.401,36.337,28.731,36.668,29.146,36.668z"/>
	<path fill="#231F20" d="M25.476,36.668c0.01,0,0.018-0.005,0.025-0.005c0.009,0,0.018,0.005,0.026,0.005
		c0.402,0,0.733-0.331,0.733-0.745c0-0.402-0.331-0.733-0.733-0.733c-0.009,0-0.018,0.005-0.026,0.005
		c-0.008,0-0.016-0.005-0.025-0.005c-0.403,0-0.733,0.331-0.733,0.733C24.742,36.337,25.072,36.668,25.476,36.668z"/>
</g>
<linearGradient id="SVGID_1_" gradientUnits="userSpaceOnUse" x1="49.8799" y1="35.8389" x2="82.5927" y2="3.126">
	<stop  offset="0.1907" style="stop-color:#00E5FF"/>
	<stop  offset="1" style="stop-color:#00FF00"/>
</linearGradient>
<path fill="url(#SVGID_1_)" d="M62.894,14.288l-9.749,9.749l6.895,3.953C60.552,28.286,61,28.833,61,29.426v3.824l9.356-9.397
	C68.479,20.223,65.916,16.984,62.894,14.288z"/>
</svg>
